<svg width="512" height="512" viewBox="0 0 512 512" fill="none" xmlns="http://www.w3.org/2000/svg">
<path d="M470.015 497L470.927 466.159L455.933 465.716L455.009 497H364.571L362.014 410.5H457.565L456.375 450.736L471.369 451.179L473.015 395.499H465.999C467.319 391.034 468.57 386.505 469.723 381.933C481.658 334.628 470.577 291.557 470.099 289.746L466.639 276.629L457.37 286.535C456.729 287.221 444.87 300.027 433.059 320.957C427.999 300.057 420.835 284.504 417.789 278.432V207.061H462.727V148.18L435.395 76.5H370.823C372.11 72.544 372.79 68.451 372.79 64.25C372.79 28.222 323.374 0 260.29 0C237.852 0 216.234 3.667 197.776 10.604L203.053 24.645C219.842 18.335 239.635 15 260.29 15C313.141 15 357.79 37.554 357.79 64.25C357.79 90.946 313.141 113.5 260.29 113.5C207.439 113.5 162.79 90.946 162.79 64.25C162.79 52.013 172.758 39.688 190.138 30.437L183.09 17.196C160.326 29.313 147.79 46.025 147.79 64.251C147.79 68.452 148.47 72.545 149.757 76.501H85.051L57.852 148.189V207.064H102.914V268.599C92.196 272.227 84.456 282.375 84.456 294.304C84.456 294.349 84.459 294.394 84.459 294.439H72.915V335.439H59.79V378.5H77.79V393.466C58.041 397.215 42.499 415.5 39.738 438.438H35.84L42.84 497H8.562V512H503.437V497H470.015ZM312.79 335.438V283.5H298.164C299.557 277.996 304.236 269.879 319.091 264.365L313.872 250.303C292.041 258.406 284.476 272.839 282.917 283.501H282.052V246H267.052V283.5H266.129C265.787 281.074 265.132 278.273 263.916 275.275C260.798 267.582 253.291 257.005 235.232 250.302L230.012 264.364C244.867 269.878 249.547 277.995 250.939 283.499H237.572V335.437H222.79V294.437H211.538C209.614 279.085 196.489 267.166 180.624 267.166C179.908 267.166 179.193 267.191 178.479 267.24C171.599 256.097 159.417 249.166 146.02 249.166C135.099 249.166 125.003 253.762 117.916 261.486V207.062H402.79V276.484C400.754 280.335 392.427 296.9 386.686 320.27C375.002 299.741 363.394 287.206 362.766 286.535L353.497 276.629L350.037 289.746C349.726 290.923 344.935 309.549 344.9 335.436H312.79V335.438ZM252.573 298.5H297.79V335.438H252.573V298.5ZM122.852 157.062H157.852V192.062H122.852V157.062ZM392.603 157.062V192.062H357.603V157.062H392.603ZM342.603 192.062H292.853V157.062H342.603V192.062ZM291.509 142.062L288.427 126.551C303.498 124.411 317.27 120.577 329.122 115.411L339.234 142.063H291.509V142.062ZM277.853 192.062H232.853V157.062H277.853V192.062ZM176.219 142.062L187.091 113.406C197.428 118.406 209.42 122.337 222.598 124.933L219.195 142.063H176.219V142.062ZM217.852 157.062V192.062H172.852V157.062H217.852ZM364.958 378.264C358.127 351.189 359.611 325.107 361.723 309.21C367.796 317.593 375.642 329.832 382.258 344.703C381.495 351.263 381.04 358.101 381.04 365.151C381.04 375.64 381.494 385.809 382.381 395.5H369.803C368.056 389.876 366.43 384.101 364.958 378.264ZM397.441 395.5C396.51 385.859 396.04 375.681 396.04 365.151C396.04 337.235 403.854 312.318 409.79 297.418C415.727 312.319 423.54 337.235 423.54 365.151C423.54 375.677 423.069 385.856 422.138 395.5H397.441ZM458.413 309.211C460.525 325.11 462.009 351.189 455.178 378.265C453.706 384.102 452.08 389.876 450.334 395.5H437.199C438.086 385.805 438.541 375.637 438.541 365.151C438.541 358.459 438.13 351.96 437.437 345.706C444.143 330.382 452.205 317.78 458.413 309.211ZM407.603 192.062V157.062H447.728V192.062H407.603ZM444.341 142.062H405.279L386.095 91.5H425.06L444.341 142.062ZM362.537 91.5H370.051L389.235 142.062H355.278L342.543 108.497C350.717 103.535 357.487 97.807 362.537 91.5ZM273.438 128.08L276.216 142.063H234.489L237.436 127.227C244.796 128.062 252.437 128.5 260.29 128.5C264.746 128.5 269.131 128.354 273.438 128.08ZM173.916 105.849L160.176 142.062H126.219L145.403 91.5H158.043C162.217 96.714 167.568 101.532 173.916 105.849ZM95.403 91.5H129.36L110.176 142.062H76.219L95.403 91.5ZM72.852 157.062H107.852V192.062H72.852V157.062ZM99.457 294.302C99.457 287.61 104.901 282.166 111.592 282.166C112.857 282.166 114.12 282.368 115.347 282.768L121.949 284.916L124.6 278.499C128.196 269.792 136.604 264.166 146.019 264.166C155.394 264.166 163.789 269.758 167.405 278.412L169.951 284.505L176.318 282.751C177.725 282.363 179.174 282.167 180.624 282.167C188.195 282.167 194.568 287.399 196.316 294.438H99.457C99.457 294.393 99.457 294.347 99.457 294.302ZM87.915 309.438H88.524H207.79V335.438H87.915V309.438ZM85.29 407.75C100.29 407.75 112.835 420.876 115.684 438.25H54.896C57.745 420.876 70.29 407.75 85.29 407.75ZM57.946 497L52.739 453.438H117.84L112.633 497H57.946ZM169.229 497L164.022 453.438H229.123L223.916 497H169.229ZM276.718 460.281H321.935V497H276.718V460.281ZM336.935 497V445.281H330.789L343.322 421.178L330.013 414.258L313.881 445.28H306.826V402.78H291.826V445.28H283.839L268.64 414.405L255.182 421.03L267.12 445.28H261.717V497H239.022L246.022 438.438H242.124C239.022 412.664 219.782 392.75 196.572 392.75C173.362 392.75 154.123 412.663 151.02 438.438H147.122L154.122 497H127.738L134.738 438.438H130.84C128.079 415.5 112.537 397.215 92.788 393.466V378.5H225.288V363.5H74.79V350.438H345.426C345.732 354.682 346.185 359.047 346.815 363.5H240.29V378.5H349.589C349.852 379.642 350.124 380.786 350.413 381.934C351.566 386.506 352.818 391.036 354.138 395.5H346.566L349.566 497H336.935ZM166.179 438.25C169.028 420.876 181.573 407.75 196.573 407.75C211.573 407.75 224.118 420.876 226.967 438.25H166.179Z" fill="white"/>
<path d="M304.133 70.3339C307.083 64.5429 307.603 57.95 305.594 51.769C303.586 45.588 299.291 40.559 293.5 37.608C290.262 35.958 286.773 35.0689 283.236 34.9589C279.843 25.6029 270.866 18.8979 260.352 18.8979C249.835 18.8979 240.855 25.6059 237.464 34.9669C227.513 35.2989 218.36 41.766 215.11 51.769C211.862 61.766 215.459 72.3729 223.321 78.4959C220.558 88.0639 223.881 98.7709 232.391 104.954C236.593 108.007 241.545 109.606 246.641 109.606C247.921 109.606 249.21 109.505 250.499 109.301C254.093 108.732 257.443 107.398 260.356 105.423C263.275 107.403 266.618 108.733 270.205 109.301C276.624 110.318 283.056 108.774 288.313 104.953C296.818 98.7739 300.141 88.0749 297.387 78.5119C300.179 76.3469 302.481 73.5749 304.133 70.3339ZM290.768 63.5239C289.651 65.7169 287.755 67.3519 285.456 68.1239L275.178 71.4119L281.616 79.8629L281.644 79.8989C284.569 84.0539 283.622 89.8219 279.498 92.8189C277.481 94.2839 275.017 94.8759 272.553 94.4859C270.157 94.1059 268.043 92.8399 266.533 90.8479L260.55 82.271L254.337 90.6199L254.122 90.9159C252.66 92.8409 250.549 94.1059 248.153 94.4849C245.694 94.8739 243.225 94.2829 241.209 92.8179C237.105 89.8359 236.147 84.1109 239.052 79.9149L245.366 71.3589L235.267 68.1279C230.437 66.4989 227.797 61.2629 229.376 56.4019C230.956 51.5409 236.171 48.8549 241.03 50.3779L251.228 53.7089L251.021 43.1559V43.15C251.064 38.0409 255.233 33.8979 260.353 33.8979C265.461 33.8979 269.624 38.0239 269.683 43.1199L269.682 53.5789L279.468 50.448L279.683 50.3769C282.021 49.6479 284.505 49.8589 286.69 50.9729C288.912 52.1039 290.558 54.0329 291.329 56.4039C292.099 58.7739 291.899 61.3029 290.768 63.5239Z" fill="white"/>
</svg>
