<svg width="517" height="485" viewBox="0 0 517 485" fill="none" xmlns="http://www.w3.org/2000/svg">
<path d="M370.601 296.303C333.368 297.512 294.373 268.8 261.903 233.073C229.457 197.048 203.834 154.029 212.862 120.095C221.913 85.8629 265.753 60.8758 302.402 41.8083C339.028 23.0386 368.326 10.0288 403.541 5.82965C438.916 1.49236 480.507 5.98724 500.618 28.996C520.591 51.8452 519.198 93.6657 512.028 130.728C504.858 167.79 492.048 200.254 467.918 231.902C443.628 263.688 407.995 294.956 370.601 296.303Z" fill="#B7BEC6" fill-opacity="0.5"/>
<path d="M88 341.645H133.125V356.645H88V341.645Z" fill="#7C7669"/>
<path d="M88 371.645H133.125V386.645H88V371.645Z" fill="#7C7669"/>
<path d="M466.779 469.16C482.369 457.237 493.041 439.195 495.148 418.645H511.531V411.145C511.531 362.062 471.599 322.129 422.516 322.129C417.409 322.129 412.314 322.579 407.284 323.457L407.508 298.395L390.25 216.645H417.5V147.606L322.5 160.668V216.645H339.833V256.145H354.833V216.645H374.917L392.492 299.895L392.213 331.1L356.34 403.646H318.029L354.832 310.575V271.146H339.832V307.717L313.762 373.646H236.5V323.649L255.48 298.378C270.144 296.438 281.5 283.863 281.5 268.677C281.5 252.153 268.056 238.709 251.531 238.709H158.5V223.709H211V208.709H197V46.6448H164.161C165.356 44.5758 166.326 42.3968 167.035 40.1248C169.543 32.1008 168.755 23.3098 164.872 16.0058C160.875 8.48684 154.981 3.35284 147.826 1.15684C142.435 -0.496158 133.617 -1.20016 122.233 4.84984C113.33 9.58284 106.773 20.3928 102.311 30.5618C97.85 20.3928 91.293 9.58384 82.39 4.85084C71.008 -1.20016 62.19 -0.496158 56.797 1.15784C49.642 3.35384 43.748 8.48884 39.752 16.0068C35.869 23.3098 35.08 32.1008 37.588 40.1258C38.298 42.3968 39.267 44.5758 40.462 46.6458H7.187V95.1458H22.187V61.6458H182V208.708H22.187V110.208H7.187V208.708H0V223.708H25.145L64.611 311.681C39.941 321.735 22.501 345.967 22.501 374.208V418.646H39.494C41.6 439.196 52.273 457.238 67.863 469.161H0V484.161H512V469.161H466.779V469.16ZM402.5 201.645H383.5V167.422L402.5 164.81V201.645ZM337.5 201.645V173.747L368.5 169.484V201.644H337.5V201.645ZM129.274 18.0958C134.767 15.1748 139.527 14.3008 143.425 15.4978C147.562 16.7668 150.168 20.3038 151.627 23.0478C153.64 26.8348 154.038 31.4278 152.718 35.6508C151.34 40.0578 148.238 43.8258 143.706 46.6458H112.202C115.986 35.1928 122.261 21.8248 129.274 18.0958ZM51.905 35.6498C50.585 31.4268 50.983 26.8338 52.996 23.0468C54.454 20.3028 57.061 16.7658 61.198 15.4968C65.095 14.2998 69.857 15.1748 75.349 18.0948C82.337 21.8098 88.616 35.1838 92.411 46.6438H60.917C56.385 43.8258 53.282 40.0568 51.905 35.6498ZM422.516 469.16C393.066 469.16 368.671 447.106 364.983 418.645H383.216C386.738 437.136 403.016 451.161 422.516 451.161C442.016 451.161 458.294 437.136 461.816 418.645H480.049C476.36 447.106 451.965 469.16 422.516 469.16ZM398.648 418.645H446.382C443.189 428.786 433.697 436.161 422.515 436.161C411.333 436.161 401.842 428.786 398.648 418.645ZM496.154 403.645H373.076L404.91 339.266C410.683 337.847 416.591 337.129 422.516 337.129C460.797 337.129 492.383 366.341 496.154 403.645ZM307.131 388.645L301.729 403.645H202.625V374.207C202.625 364.734 200.655 355.715 197.117 347.526C206.91 345.497 215.215 341.26 221.5 337.078V388.644H307.131V388.645ZM153 435.645C142.105 435.645 132.849 428.498 129.674 418.645H247.326C244.151 428.498 234.894 435.645 224 435.645H153ZM114.223 418.645C115.347 424.469 117.753 429.84 121.137 434.454C118.279 435.562 115.227 436.161 112.125 436.161C100.944 436.161 91.453 428.786 88.259 418.645H114.223ZM251.531 253.707C259.785 253.707 266.5 260.422 266.5 268.676C266.5 276.93 259.785 283.645 251.531 283.645H195.125V298.645H236.519L223.242 316.323C221.54 318.107 207.796 331.913 188.997 333.592C176.665 317.275 157.108 306.708 135.125 306.708H90C87.993 306.708 85.965 306.798 83.965 306.977L85.354 298.645H181V283.645H158.5V253.708L251.531 253.707ZM87.255 283.644C90.738 266.582 105.862 253.707 123.938 253.707H143.5V283.644H87.255ZM143.5 223.707V238.707H123.937C95.268 238.707 71.913 261.835 71.518 290.412L71.515 290.428L41.584 223.708H143.5V223.707ZM37.5 374.207C37.5 349.787 54.259 329.208 76.881 323.367C81.152 322.264 85.589 321.707 90 321.707H135.125C164.074 321.707 187.625 345.258 187.625 374.207V403.645H37.5V374.207ZM54.61 418.645H72.824C76.346 437.136 92.624 451.161 112.124 451.161C119.539 451.161 126.792 449.076 133.06 445.223C138.917 448.663 145.729 450.646 152.999 450.646H154.607C143.757 462.294 128.418 469.161 112.124 469.161C82.678 469.16 58.302 447.102 54.61 418.645ZM156.428 469.16C163.08 464.085 168.895 457.851 173.537 450.645H224C243.216 450.645 259.262 436.85 262.777 418.645H349.884C351.99 439.195 362.663 457.237 378.253 469.16H156.428Z" fill="#7C7669"/>
<path d="M130.61 98.8648C126.94 86.5928 115.545 77.6228 102.094 77.6228C88.645 77.6228 77.251 86.5918 73.579 98.8618C60.753 98.5498 48.724 106.628 44.568 119.419C40.416 132.197 45.411 145.791 55.949 153.088C54.32 157.695 53.855 162.663 54.641 167.626C55.885 175.477 60.111 182.374 66.541 187.045C72.971 191.716 80.836 193.605 88.687 192.361C93.64 191.576 98.212 189.605 102.092 186.634C105.968 189.601 110.544 191.575 115.501 192.361C117.078 192.611 118.654 192.734 120.22 192.734C126.452 192.734 132.508 190.778 137.647 187.045C144.078 182.373 148.304 175.476 149.547 167.626C150.333 162.661 149.867 157.69 148.245 153.093C158.771 145.806 163.774 132.205 159.62 119.42C155.464 106.631 143.421 98.5808 130.61 98.8648ZM135.989 142.613L126.008 145.935L132.034 154.221L132.233 154.49C134.448 157.642 135.335 161.463 134.731 165.278C134.114 169.171 132.019 172.591 128.83 174.908C125.641 177.225 121.741 178.163 117.847 177.545C114.017 176.939 110.645 174.9 108.351 171.826L102.094 162.973L95.969 171.637C95.938 171.681 95.907 171.725 95.878 171.769C93.563 174.887 90.182 176.936 86.34 177.544C82.449 178.163 78.547 177.225 75.357 174.907C72.168 172.59 70.072 169.17 69.456 165.277C68.854 161.475 69.733 157.666 71.966 154.473L78.179 145.933L68.459 142.693C68.38 142.667 68.3 142.642 68.221 142.618C60.538 140.069 56.329 131.761 58.834 124.051C61.339 116.341 69.626 112.094 77.323 114.542L87.34 117.831V107.477L87.338 107.268C87.398 99.1818 93.995 92.6218 102.095 92.6218C110.193 92.6218 116.788 99.1788 116.852 107.262L116.693 117.883L126.862 114.545C134.571 112.103 142.851 116.349 145.355 124.052C147.861 131.77 143.642 140.086 135.989 142.613Z" fill="#7C7669"/>
<path d="M94.531 129.676H109.656V144.676H94.531V129.676Z" fill="#7C7669"/>
</svg>
