<svg width="490" height="481" viewBox="0 0 490 481" fill="none" xmlns="http://www.w3.org/2000/svg">
<path d="M282.326 163.175C305.19 184.924 316.87 218.782 323.58 259.561C330.291 300.34 332.03 347.792 309.166 377.697C286.302 407.601 238.586 420.206 196.337 414.768C154.088 409.331 117.307 386.1 78.5375 356.195C40.0166 326.043 -0.492516 289.466 0.0045282 253.383C0.750095 217.3 42.2533 181.958 80.7743 160.209C119.544 138.46 155.082 130.305 190.124 131.046C225.166 131.787 259.213 141.426 282.326 163.175Z" fill="#CFCEB8" fill-opacity="0.5"/>
<path d="M401.211 120.024C404.42 119.227 407.273 117.672 409.604 115.338C415.879 109.051 416.545 98.9792 411.828 88.2763C422.716 84.0509 429.354 76.4557 429.354 67.5641C429.354 58.6641 422.703 51.0632 411.796 46.8388C416.412 36.1894 415.766 25.9649 409.604 19.79C403.328 13.5032 393.274 12.8339 382.593 17.5603C378.374 6.64963 370.794 0 361.919 0C353.037 0 345.45 6.66373 341.234 17.5923C330.608 12.9674 320.4 13.6132 314.24 19.7872C313.933 20.0946 313.45 20.479 312.919 20.871C307.931 20.1491 302.222 21.1051 296.317 23.7155C292.098 12.8067 284.518 6.15612 275.645 6.15612C266.771 6.15612 259.19 12.8057 254.972 23.7155C249.478 21.2846 244.155 20.2929 239.423 20.746C239.146 20.4217 238.876 20.0908 238.575 19.7891C232.3 13.5004 222.245 12.8321 211.564 17.5584C207.345 6.64963 199.765 0 190.891 0C182.018 0 174.437 6.64963 170.219 17.5594C159.536 12.833 149.483 13.5032 143.209 19.7891C137.046 25.9631 136.4 36.1875 141.016 46.8378C130.109 51.0623 123.458 58.6632 123.458 67.5632C123.458 79.067 137.997 85.2955 148.13 88.2396C147.275 93.4012 148.2 99.3853 150.872 105.509C141.273 109.463 134.825 116.452 133.373 124.947C132.348 130.939 134.694 136.309 138.18 140.766H115.307V147.816C115.307 163.668 117.685 179.25 122.367 194.216C117.685 198.196 113.643 203.689 110.466 210.454C107.114 217.595 105.825 223.795 105.772 224.056L104.707 229.274L109.425 231.727C109.66 231.85 115.281 234.748 122.93 236.63C127.34 237.715 131.584 238.256 135.592 238.256C138.449 238.256 141.185 237.979 143.775 237.431C159.165 259.143 180.029 276.631 203.909 287.992V317.305L170.964 434.568L234.459 449.126V477.683L240.343 478.662C241.053 478.781 254.652 481 273.399 481C278.241 481 283.426 480.852 288.821 480.481C324.408 478.036 351.975 466.871 368.547 448.19L371.106 445.305L354.55 386.571L341.006 390.403L355.43 441.571C325.549 471.245 267.192 467.571 248.532 465.513V325.537H266.3V393.687H280.373V325.537H292.415L304.226 367.437L317.77 363.606L307.039 325.537H322.722L337.015 376.244L350.559 372.413L339.636 333.663L374.615 355.481L382.053 343.511L341.934 318.487L382.053 293.463L374.615 281.492L335.142 306.113V288.482C351.734 280.75 366.963 270.066 379.914 256.992C383.404 257.812 387.175 258.233 391.183 258.233C392.309 258.233 393.455 258.2 394.616 258.134C402.48 257.687 408.534 255.869 408.788 255.792L413.876 254.245L413.781 248.92C413.776 248.654 413.643 242.321 411.651 234.687C410.354 229.711 408.538 225.259 406.275 221.407C418.4 198.903 424.798 173.559 424.798 147.816V140.765H410.071C408.848 133.557 405.849 126.564 401.211 120.024ZM324.279 138.731C313.627 136.11 303.931 136.668 296.236 140.345C290.053 143.301 284.62 148.534 280.302 155.635L279.114 140.927C286.475 139.429 292.661 133.181 296.317 123.725C307 128.451 317.052 127.782 323.327 121.496C323.71 121.113 324.07 120.714 324.412 120.302C327.71 120.811 331.321 120.586 335.079 119.651L329.743 140.331C328.094 139.773 326.256 139.218 324.279 138.731ZM326.05 153.951C323.714 160.486 319.083 169.515 311.784 173.003C304.484 176.492 294.563 174.416 288.029 172.123C290.365 165.588 294.996 156.56 302.294 153.071H302.295C309.596 149.581 319.516 151.658 326.05 153.951ZM255.71 192.245C252.006 186.915 247.9 181.936 243.448 177.333C245.282 176.483 246.949 175.353 248.389 173.912C254.663 167.625 255.33 157.553 250.614 146.85C255.636 144.902 259.739 142.229 262.718 139.05C263.454 139.314 264.184 139.556 264.901 139.762L267.937 177.361C263.46 182.002 259.368 186.976 255.71 192.245ZM347.443 128.067C351.45 132.581 356.436 135.126 361.919 135.126C370.286 135.126 377.5 129.213 381.833 119.393C389.069 125.965 393.806 133.26 395.695 140.766H353.963C350.659 140.766 347.351 140.906 344.059 141.178L347.443 128.067ZM341.595 33.8967L350.583 40.144L352.53 29.3584C354.233 19.9338 358.729 14.1001 361.919 14.1001C365.11 14.1001 369.607 19.9338 371.309 29.3584L373.255 40.144L382.243 33.8967C390.099 28.4381 397.396 27.4981 399.651 29.7607C401.908 32.0205 400.971 39.3319 395.522 47.2007L389.287 56.206L400.052 58.1565C409.459 59.8617 415.281 64.3671 415.281 67.5641C415.281 70.7611 409.459 75.2666 400.053 76.9717L389.287 78.9213L395.522 87.9266C400.971 95.7964 401.908 103.108 399.652 105.368C397.394 107.628 390.097 106.689 382.243 101.231L373.255 94.9842L371.309 105.771C369.608 115.194 365.111 121.028 361.919 121.028C358.73 121.028 354.233 115.194 352.53 105.77L350.583 94.9851L341.596 101.232C336.631 104.681 331.943 106.275 328.589 106.462C328.398 102.671 327.39 98.6023 325.553 94.4343C336.441 90.208 343.078 82.6137 343.078 73.7221C343.078 64.8221 336.427 57.2212 325.52 52.9968C329.457 43.9116 329.552 35.1451 325.673 28.9297C328.833 27.9305 335.013 29.3208 341.595 33.8967ZM255.32 40.0529L264.308 46.3002L266.255 35.5154C267.956 26.0909 272.453 20.2572 275.645 20.2572C278.834 20.2572 283.331 26.0909 285.034 35.5154L286.981 46.3002L295.968 40.0529C303.824 34.5942 311.119 33.6542 313.377 35.9168C315.633 38.1766 314.696 45.488 309.247 53.3568L303.012 62.3621L313.777 64.3126C323.184 66.0178 329.006 70.5233 329.006 73.7202C329.006 76.9172 323.184 81.4227 313.777 83.1279L303.012 85.0774L309.247 94.0827C314.696 101.952 315.633 109.264 313.376 111.525C311.12 113.785 303.823 112.846 295.968 107.388L286.981 101.14L285.034 111.925C283.332 121.35 278.835 127.183 275.645 127.183C273.509 127.183 270.758 126.84 268.132 125.996C268.062 117.167 261.444 109.63 250.613 105.425C255.33 94.7219 254.662 84.6497 248.388 78.3639C242.253 72.2153 232.509 71.4529 222.097 75.8362C222.209 75.0992 222.283 74.3895 222.283 73.7202C222.283 70.5242 228.106 66.0187 237.512 64.3126L248.276 62.3621L242.041 53.3568C236.592 45.488 235.654 38.1775 237.912 35.9159C240.168 33.658 247.465 34.5952 255.32 40.0529ZM137.54 67.3432C137.798 64.1632 143.568 59.8222 152.761 58.1565L163.525 56.206L157.29 47.2007C151.84 39.3319 150.903 32.0214 153.16 29.7598C155.415 27.5009 162.713 28.439 170.568 33.8967L179.556 40.144L181.503 29.3593C183.204 19.9338 187.701 14.1001 190.891 14.1001C194.081 14.1001 198.579 19.9338 200.28 29.3584L202.228 40.1431L211.216 33.8958C216.952 29.9092 222.382 28.3413 225.777 28.6628C221.729 34.8932 221.776 43.7809 225.769 52.9949C219.768 55.3177 215.065 58.6632 212.041 62.6704C208.679 60.0299 204.836 58.5739 200.706 58.5739C191.833 58.5739 184.252 65.2235 180.034 76.1332C171.046 72.157 162.515 72.016 156.295 75.808C145.355 73.3743 138.561 69.2796 137.54 67.3432ZM147.243 127.328C148.082 122.426 154.1 118.266 162.574 116.73L173.338 114.78L167.102 105.775C161.653 97.9057 160.716 90.5953 162.973 88.3336C165.23 86.0748 172.527 87.0139 180.381 92.4706L189.369 98.7179L191.316 87.9332C193.017 78.5086 197.513 72.675 200.704 72.675C203.895 72.675 208.392 78.5086 210.093 87.9332L212.04 98.7188L221.028 92.4715C228.882 87.012 236.179 86.072 238.435 88.3355C240.692 90.5953 239.754 97.9067 234.305 105.776L228.071 114.781L238.835 116.731C248.241 118.436 254.064 122.942 254.064 126.139C254.064 129.336 248.241 133.841 238.835 135.547L228.071 137.496L234.305 146.501C239.753 154.371 240.691 161.683 238.435 163.943C237.007 165.375 232.862 165.726 227.083 163.207C207.744 149.35 184.419 141.329 159.988 140.811C153.865 137.308 146.615 131.003 147.243 127.328ZM121.159 221.412C123.495 214.876 128.126 205.847 135.425 202.359C142.716 198.872 152.622 200.941 159.156 203.23C157.019 209.266 152.601 218.617 144.915 222.291C137.614 225.781 127.694 223.703 121.159 221.412ZM321.068 311.436H217.982V295.515H321.068V311.436ZM234.459 434.662L188.517 424.129L216.216 325.537H234.459V434.662ZM375.624 240.004C369.084 235.235 366.183 225.505 365.081 218.657C371.931 217.603 382.059 217.383 388.596 222.15C395.136 226.919 398.037 236.649 399.138 243.496C392.29 244.552 382.162 244.774 375.624 240.004ZM396.183 210.271C389.357 205.581 380.198 203.414 369.605 204.02C361.741 204.467 355.687 206.285 355.434 206.362L350.346 207.908L350.44 213.234C350.445 213.5 350.578 219.832 352.57 227.467C355.2 237.552 359.933 245.512 366.294 250.595C352.051 263.973 335.105 274.33 316.765 280.799H284.539L307.778 234.231L295.191 227.924L268.804 280.799H248.417V260.618C248.417 254.288 248.979 247.947 250.087 241.772L236.235 239.278C234.98 246.272 234.344 253.453 234.344 260.618V280.799H223.342C196.871 271.461 173.508 254.074 156.787 231.396C161.973 227.359 166.431 221.526 169.873 214.196C173.225 207.055 174.514 200.856 174.567 200.594L175.632 195.376L170.914 192.923C170.679 192.801 165.058 189.903 157.409 188.02C149.245 186.011 141.647 185.877 135.076 187.574C131.964 176.951 130.1 166.003 129.554 154.867H157.469C194.287 154.867 228.533 174.238 247.647 205.64C244.525 211.69 241.913 218.013 239.858 224.549L253.28 228.788C258.577 211.953 268.049 196.711 280.778 184.435C283.123 185.37 286.237 186.466 289.802 187.344C294.212 188.429 298.456 188.969 302.463 188.969C308.139 188.968 313.337 187.885 317.846 185.73C325.539 182.053 332.075 174.853 336.744 164.909C338.371 161.442 339.509 158.204 340.258 155.752C344.788 155.165 349.38 154.867 353.965 154.867H410.551C409.588 174.16 404.681 193.047 396.183 210.271Z" fill="#7C7669"/>
<path d="M268.608 66.6702H282.681V80.7703H268.608V66.6702Z" fill="#7C7669"/>
<path d="M193.599 119.083H207.672V133.183H193.599V119.083Z" fill="#7C7669"/>
<path d="M354.707 60.5131H368.78V74.6132H354.707V60.5131Z" fill="#7C7669"/>
<path d="M80.3864 107.703C86.9689 113.08 96.2131 115.921 107.127 115.921C107.168 115.921 107.21 115.921 107.251 115.92C115.128 115.905 121.273 114.422 121.531 114.359L126.695 113.094L126.891 107.771C126.901 107.506 127.113 101.176 125.543 93.4435C123.356 82.6748 118.708 74.1291 112.102 68.7316C105.519 63.3538 96.275 60.5131 85.3599 60.5131C85.3195 60.5131 85.2773 60.5131 85.236 60.514C77.3588 60.5291 71.2145 62.0124 70.9565 62.0754L65.7926 63.3397L65.5965 68.6621C65.5862 68.9281 65.3732 75.2581 66.9437 82.9906C69.1317 93.7594 73.7795 102.305 80.3864 107.703ZM103.209 79.6592C109.478 84.7813 111.844 94.6552 112.569 101.553C105.673 102.229 95.5469 101.894 89.2806 96.7749C83.0115 91.6528 80.6454 81.7789 79.9211 74.8812C86.815 74.2034 96.943 74.539 103.209 79.6592Z" fill="#7C7669"/>
<path d="M472.784 89.3921C462.575 85.3754 452.889 84.6385 444.775 87.2592C436.662 89.8799 429.23 96.147 423.284 105.382C419.015 112.013 416.916 117.987 416.828 118.238L415.08 123.269L419.433 126.329C419.649 126.481 424.836 130.102 432.168 132.986C438.374 135.428 444.387 136.657 449.972 136.657C453.573 136.657 456.996 136.145 460.177 135.117C468.29 132.496 475.721 126.23 481.667 116.995C485.937 110.364 488.035 104.391 488.124 104.139L489.871 99.108L485.519 96.0483C485.302 95.8969 480.116 92.276 472.784 89.3921ZM455.858 121.698C448.167 124.18 438.625 120.814 432.452 117.677C435.37 111.979 440.988 103.299 449.094 100.681C456.783 98.1971 466.326 101.564 472.5 104.701C469.582 110.398 463.964 119.079 455.858 121.698Z" fill="#7C7669"/>
<path d="M438.891 74.0483L440.529 79.1159L445.841 78.9223C446.107 78.9119 452.423 78.6609 460.006 76.5243C470.564 73.5501 478.729 68.2795 483.617 61.2811C488.505 54.2827 490.653 44.7924 489.827 33.8338C489.234 25.9649 487.307 19.9329 487.227 19.68L485.59 14.6115L480.276 14.8051C480.011 14.8155 473.695 15.0665 466.112 17.2031C455.553 20.1782 447.388 25.4489 442.499 32.4472C437.611 39.4447 435.464 48.936 436.29 59.8936C436.882 67.7643 438.81 73.7954 438.891 74.0483ZM454.029 40.5332C458.668 33.893 468.323 30.8041 475.136 29.5746C476.316 36.415 476.724 46.5587 472.088 53.1961C467.455 59.8278 457.818 62.9167 451.006 64.1491C449.898 57.8416 449.146 47.5241 454.029 40.5332Z" fill="#7C7669"/>
<path d="M112.623 129.429L108.251 126.398C108.033 126.248 102.822 122.663 95.47 119.83C85.2323 115.882 75.5406 115.213 67.4476 117.89C59.3518 120.567 51.9634 126.884 46.0817 136.16C41.8579 142.821 39.7995 148.809 39.7141 149.061L38 154.103L42.373 157.133C42.5907 157.284 47.8024 160.869 55.1533 163.702C61.2807 166.063 67.2102 167.251 72.7203 167.251C76.4168 167.251 79.9257 166.716 83.1757 165.641C91.2715 162.964 98.6599 156.647 104.542 147.371C108.765 140.71 110.824 134.722 110.909 134.47L112.623 129.429ZM78.7652 152.251C71.0934 154.787 61.5265 151.486 55.3315 148.392C58.2109 142.674 63.7688 133.955 71.8562 131.281C79.5289 128.746 89.0949 132.046 95.2889 135.14C92.4114 140.859 86.8525 149.577 78.7652 152.251Z" fill="#7C7669"/>
<path d="M80.028 21.5497H94.1012V35.6499H80.028V21.5497Z" fill="#7C7669"/>
<path d="M459.512 182.655H473.585V196.755H459.512V182.655Z" fill="#7C7669"/>
<path d="M58.4276 191.115H72.5008V205.215H58.4276V191.115Z" fill="#7C7669"/>
</svg>
