<svg width="468" height="481" viewBox="0 0 468 481" fill="none" xmlns="http://www.w3.org/2000/svg">
<path d="M444.518 59.1906C469.186 84.309 470.666 131.837 465.732 174.44C460.799 217.043 449.452 254.72 425.03 276.637C400.363 298.554 362.621 304.465 325.372 303.972C288.124 303.48 251.368 296.338 228.674 274.667C205.979 252.75 197.099 216.058 192.412 174.686C187.972 133.561 187.478 87.7566 210.42 62.6382C233.114 37.5197 278.996 32.8408 325.619 32.1021C372.488 31.3633 420.097 34.0721 444.518 59.1906Z" fill="#ADA390" fill-opacity="0.5"/>
<path d="M372.963 172.356C359.956 172.356 347.51 167.508 337.919 158.705C328.329 149.902 322.424 137.904 321.29 124.924L316.048 64.8793H283.357V0H231.752V64.8784H143.673V0H92.0679V64.8784H63.9507L58.7086 124.923C58.0424 132.562 55.7746 139.78 51.968 146.374L64.1524 153.431C68.9958 145.037 71.881 135.86 72.7292 126.151L76.8482 78.978H92.0679V101.471C92.0679 115.723 103.643 127.319 117.87 127.319C132.097 127.319 143.673 115.723 143.673 101.471V78.9771H231.753V101.47C231.753 115.722 243.329 127.318 257.556 127.318C271.783 127.318 283.358 115.722 283.358 101.47V78.9771H303.152L307.271 126.15C308.712 142.654 316.219 157.906 328.412 169.098C338.862 178.69 351.978 184.589 365.926 186.079V296.893H380V172.354H372.963V172.356ZM129.599 101.47C129.599 107.949 124.338 113.219 117.87 113.219C111.403 113.219 106.142 107.949 106.142 101.47V14.0987H129.599V101.47ZM269.284 101.47C269.284 107.949 264.023 113.219 257.556 113.219C251.088 113.219 245.827 107.949 245.827 101.47V14.0987H269.284V101.47Z" fill="#7C7669"/>
<path d="M365.926 466.901H330.683V382.897H276.843V365.864C277.792 366.228 278.784 366.587 279.816 366.93C285.539 368.831 291.037 369.783 296.154 369.783C300.794 369.783 305.122 369 309.019 367.433C317.213 364.139 324.389 357.019 329.771 346.844C333.629 339.549 335.295 333.1 335.364 332.829L336.637 327.833L332.268 325.105C332.032 324.958 326.378 321.452 318.554 318.855C307.643 315.231 297.547 315.057 289.352 318.352C284.827 320.171 280.615 323.162 276.843 327.183V308.281C280.008 309.474 283.361 310.105 286.738 310.105C292.427 310.105 298.168 308.372 303.111 304.773C309.145 300.383 313.11 293.901 314.277 286.521C315.014 281.854 314.577 277.182 313.055 272.862C322.931 266.013 327.625 253.228 323.727 241.211C321.423 234.106 316.495 228.325 309.85 224.934C305.646 222.787 301.076 221.753 296.502 221.875C293.051 210.35 282.365 201.927 269.752 201.927C257.138 201.927 246.449 210.352 243 221.88C238.439 221.756 233.854 222.791 229.654 224.934C223.009 228.325 218.082 234.107 215.777 241.211C211.879 253.229 216.575 266.016 226.453 272.864C224.926 277.192 224.491 281.86 225.227 286.521C226.395 293.901 230.36 300.383 236.393 304.773C244.303 310.531 254.242 311.492 262.766 308.24V326.73C259.105 322.939 255.045 320.1 250.693 318.35C242.499 315.055 232.4 315.228 221.49 318.853C213.667 321.451 208.013 324.956 207.776 325.103L203.408 327.831L204.681 332.828C204.75 333.098 206.416 339.547 210.274 346.843C215.656 357.017 222.832 364.137 231.026 367.431C234.923 368.998 239.25 369.781 243.891 369.781C249.008 369.781 254.507 368.829 260.229 366.929C261.105 366.637 261.949 366.334 262.766 366.027V382.896H117.486V365.951C118.366 366.285 119.282 366.615 120.231 366.929C125.954 368.83 131.452 369.782 136.569 369.782C141.209 369.782 145.537 368.999 149.434 367.432C157.628 364.138 164.804 357.018 170.186 346.844C174.044 339.548 175.71 333.099 175.779 332.829L177.052 327.832L172.683 325.104C172.447 324.957 166.793 321.451 158.969 318.854C148.058 315.23 137.962 315.056 129.767 318.351C125.332 320.133 121.2 323.046 117.486 326.947V317.312C127.535 316.056 136.552 312.103 143.373 305.87C152.514 297.516 157.347 285.709 157.347 271.723C157.347 243.712 137.284 212.383 110.435 212.383C83.585 212.383 63.5219 243.712 63.5219 271.723C63.5219 285.709 68.354 297.516 77.4965 305.87C84.3234 312.108 93.3505 316.062 103.413 317.315V327.38C99.5919 323.256 95.3134 320.201 90.714 318.352C82.5201 315.057 72.4205 315.23 61.5112 318.855C53.6879 321.453 48.0339 324.958 47.7974 325.105L43.4288 327.833L44.7021 332.829C44.7706 333.1 46.4369 339.549 50.2951 346.844C55.677 357.019 62.8529 364.139 71.0469 367.433C74.9435 369 79.2708 369.783 83.9115 369.783C89.0288 369.783 94.528 368.831 100.25 366.93C101.352 366.564 102.406 366.179 103.413 365.789V382.897H49.3193V466.901H14.0741V186.088C29.3867 184.477 43.5001 177.619 54.3879 166.373L44.2845 156.557C34.4214 166.745 21.1937 172.356 7.03704 172.356H0V481H380V312.403H365.926V466.901ZM294.595 331.434C302.629 328.206 313.239 331.466 319.949 334.519C317.46 340.79 312.265 350.936 303.776 354.35C295.739 357.583 285.126 354.317 278.422 351.265C280.91 344.995 286.104 334.847 294.595 331.434ZM254.972 295.845C251.316 296.425 247.66 295.544 244.667 293.366C241.676 291.189 239.71 287.974 239.131 284.314C238.564 280.731 239.395 277.141 241.503 274.135L247.458 266.181L238.196 263.088C238.104 263.058 238.013 263.03 237.945 263.009C230.753 260.603 226.817 252.804 229.164 245.566C230.307 242.042 232.751 239.176 236.047 237.494C239.296 235.835 242.987 235.525 246.534 236.636L255.91 239.575V229.987L255.908 229.813C255.952 222.202 262.146 216.024 269.754 216.024C277.363 216.024 283.559 222.206 283.6 229.82L283.598 239.575L292.734 236.715L292.988 236.631C296.482 235.522 300.195 235.827 303.461 237.494C306.757 239.176 309.201 242.042 310.344 245.566C312.69 252.8 308.76 260.593 301.575 263.005L292.05 266.181L297.908 274.005L297.995 274.12C300.101 277.093 300.947 280.707 300.377 284.314C299.798 287.974 297.832 291.188 294.841 293.366C291.848 295.543 288.185 296.425 284.536 295.845C280.957 295.277 277.802 293.373 275.638 290.485L269.755 282.342L264.056 290.227C264.008 290.292 263.962 290.358 263.919 290.423C261.744 293.35 258.574 295.272 254.972 295.845ZM236.271 354.35C228.225 351.114 222.808 341.388 220.07 334.532C226.779 331.474 237.404 328.199 245.452 331.434C253.5 334.67 258.919 344.402 261.653 351.252C254.944 354.308 244.319 357.582 236.271 354.35ZM135.01 331.434C143.043 328.206 153.654 331.466 160.364 334.519C157.875 340.79 152.68 350.936 144.191 354.35C136.154 357.583 125.54 354.317 118.837 351.265C121.325 344.995 126.519 334.847 135.01 331.434ZM76.289 354.35C68.2433 351.114 62.8257 341.388 60.0879 334.532C66.7974 331.474 77.4215 328.199 85.47 331.434C93.5185 334.67 98.937 344.402 101.671 351.252C94.9625 354.308 84.3356 357.582 76.289 354.35ZM143.272 271.722C143.272 276.925 142.407 281.385 140.9 285.18C140.787 284.317 140.646 283.458 140.443 282.607C138.584 274.812 132.217 264.271 112.463 258.314C111.854 258.131 111.267 257.939 110.687 257.745C111.905 256.074 113.383 254.226 115.105 252.392C121.032 246.077 127.308 242.473 133.815 241.614C139.53 249.941 143.272 260.78 143.272 271.722ZM110.434 226.481C114.503 226.481 118.552 227.838 122.348 230.215C110.697 235.013 102.501 244.708 98.0184 251.262C92.1814 246.827 89.7541 242.049 88.7727 239.255C94.7917 231.523 102.577 226.481 110.434 226.481ZM77.5951 271.722C77.5951 265.568 78.7848 259.449 80.8359 253.787C85.7017 260.356 94.0561 267.488 108.405 271.814C118.823 274.955 125.339 279.952 126.756 285.886C127.948 290.883 125.583 296.847 120.251 302.442C116.993 303.265 113.657 303.647 110.435 303.647C95.2852 303.648 77.5951 295.287 77.5951 271.722ZM63.3924 466.901V432.822H133.821V418.723H63.3924V396.995H316.608V418.723H147.778V432.822H316.608V466.901H63.3924Z" fill="#7C7669"/>
<path d="M232.222 142.338H147.778V192.154H232.222V142.338ZM218.148 178.055H161.852V156.437H218.148V178.055Z" fill="#7C7669"/>
<path d="M263.185 251.309H277.259V265.408H263.185V251.309Z" fill="#7C7669"/>
<path d="M154.405 441.23H168.479V455.329H154.405V441.23Z" fill="#7C7669"/>
<path d="M182.553 441.23H196.627V455.329H182.553V441.23Z" fill="#7C7669"/>
<path d="M210.701 441.23H224.775V455.329H210.701V441.23Z" fill="#7C7669"/>
</svg>
