<svg width="564" height="514" viewBox="0 0 564 514" fill="none" xmlns="http://www.w3.org/2000/svg">
<path d="M208.887 198.275C241.075 206.039 265.356 246.136 289.884 286.663C314.322 327.528 338.917 369.161 330.028 401.774C321.476 434.478 279.564 458.377 238.556 478.891C197.886 499.496 158.12 516.718 116.097 513.197C74.1977 509.891 29.7038 485.753 11.1837 449.203C-7.3364 412.653 -0.0969028 363.815 18.503 326.744C37.3172 289.549 67.2775 264.244 102.154 239.539C137.03 214.833 176.912 190.388 208.887 198.275Z" fill="#B7BEC6" fill-opacity="0.5"/>
<path d="M564 37.4476L559.436 35.4988C559.052 35.3355 550.745 31.8297 534.435 27.9501V0H474.318V18.9828C460.806 17.9418 446.695 17.4087 432.243 17.4087C359.846 17.4087 318.944 30.3398 308 34.3505C297.056 30.3398 256.154 17.4087 183.757 17.4087C99.8959 17.4087 58.2933 34.7593 56.5639 35.4988L52.0001 37.4476V91.0514H67.0292V47.6633C79.6977 43.4041 118.643 32.4378 183.757 32.4378C248.888 32.4378 287.834 43.4091 300.485 47.6623V330.541C283.512 326.195 244.943 318.539 183.757 318.539C122.591 318.539 84.0111 326.192 67.0292 330.539V106.144H52.0001L52.0622 396.85H336.05V421.192H403.6V396.85H425.013V435.219H492.563V396.85H563.93L564 37.4476ZM489.347 15.0291H519.406V71.8262L504.377 67.1501L489.347 71.8262V15.0291ZM67.0913 381.82V346.038C84.8217 341.006 125.683 333.569 183.756 333.569C248.319 333.569 291.625 342.762 305.494 347.619L307.998 348.497L310.493 347.622C324.373 342.761 367.679 333.568 432.242 333.568C435.992 333.568 439.764 333.598 443.453 333.658L443.696 318.631C439.926 318.57 436.072 318.539 432.241 318.539C371.055 318.539 332.487 326.194 315.513 330.541V47.6643C328.178 43.4051 367.123 32.4388 432.241 32.4388C446.722 32.4388 460.842 32.9829 474.316 34.054V92.2427L504.375 82.8916L534.433 92.2427V43.4251C540.926 45.0663 545.783 46.5732 548.969 47.6513V330.544C534.591 326.869 504.716 320.823 458.74 319.043L458.159 334.061C507.29 335.964 537.573 342.977 548.898 346.101V355.769H308.497V370.798H336.05V381.82H67.0913ZM388.571 406.162H351.079V370.798H388.571V406.162ZM403.6 381.82V370.798H425.013V381.82H403.6ZM477.534 420.189H440.042V370.798H477.534V420.189ZM492.563 381.82V370.798H548.901V381.82H492.563Z" fill="#7C7669"/>
<path d="M277.938 53.4786H90.7V203.708H277.938V53.4786ZM262.909 188.679H105.729V68.5077H262.909V188.679Z" fill="#7C7669"/>
<path d="M473.316 113.595H339.181V166.26H354.211V128.624H458.287V285.929H354.211V181.226H339.181V300.958H473.316V113.595Z" fill="#7C7669"/>
<path d="M91.201 218.862H173.235V233.891H91.201V218.862Z" fill="#7C7669"/>
<path d="M91.201 249.046H173.235V264.075H91.201V249.046Z" fill="#7C7669"/>
<path d="M91.201 279.229H143.177V294.258H91.201V279.229Z" fill="#7C7669"/>
<path d="M277.938 301.021V218.862H195.779V301.021H277.938ZM210.808 233.891H262.909V285.992H210.808V233.891Z" fill="#7C7669"/>
<path d="M145.744 143.101C144.659 146.694 144.391 150.514 144.996 154.33C146.051 160.99 149.636 166.841 155.092 170.804C160.546 174.769 167.223 176.366 173.879 175.315C177.692 174.711 181.239 173.278 184.319 171.14C187.398 173.278 190.946 174.711 194.759 175.315C196.096 175.526 197.433 175.63 198.761 175.63C204.048 175.63 209.187 173.971 213.546 170.804C219.002 166.84 222.587 160.99 223.642 154.329C224.247 150.513 223.978 146.692 222.893 143.099C231.181 136.777 235.01 125.671 231.61 115.21C228.209 104.747 218.583 98.0119 208.154 97.7734C204.707 87.9304 195.324 80.8516 184.319 80.8516C173.315 80.8516 163.932 87.9284 160.485 97.7704C150.06 98.0079 140.428 104.744 137.028 115.21C133.628 125.674 137.458 136.782 145.744 143.101ZM151.32 119.854C153.052 114.53 158.77 111.589 164.083 113.259L174.49 116.651L174.103 105.997C174.157 100.41 178.719 95.8798 184.318 95.8798C189.917 95.8798 194.479 100.409 194.533 105.995L194.136 116.666L204.38 113.318L204.557 113.258C209.88 111.596 215.586 114.535 217.315 119.854C219.045 125.177 216.151 130.912 210.847 132.697L200.342 136.003L207.061 144.501C208.599 146.685 209.216 149.333 208.797 151.977C208.369 154.673 206.918 157.04 204.711 158.644C202.503 160.248 199.805 160.897 197.108 160.47C194.463 160.051 192.135 158.646 190.533 156.508L184.503 147.84L178.275 156.267L178.059 156.564C176.459 158.671 174.148 160.054 171.526 160.47C168.83 160.897 166.129 160.248 163.923 158.644C161.716 157.04 160.265 154.673 159.837 151.977C159.418 149.332 160.034 146.683 161.572 144.501L168.291 136.003L157.799 132.701C152.494 130.931 149.588 125.186 151.32 119.854Z" fill="#7C7669"/>
<path d="M443.733 200.099C452.143 177.087 437.082 151.424 436.438 150.343L433.309 145.1L427.536 147.09C426.44 147.468 402.533 155.918 392.206 175.25C388.827 173.69 386.53 172.879 386.191 172.762L380.417 170.772L377.288 176.015C376.566 177.225 359.705 205.953 369.088 231.625C378.47 257.299 409.881 268.384 411.214 268.843L416.987 270.833L420.116 265.59C420.757 264.517 434.051 241.842 430.549 218.831C436.809 213.205 441.24 206.922 443.733 200.099ZM410.122 252.046C402.012 248.108 388.023 239.653 383.205 226.467C378.384 213.278 383.629 197.793 387.284 189.56C395.393 193.499 409.382 201.953 414.201 215.139C419.021 228.327 413.777 243.812 410.122 252.046ZM429.618 194.941C428.613 197.691 427.067 200.358 425.01 202.925C419.958 194.144 412.412 187.459 405.305 182.638C410.069 173.385 419.981 167.178 426.419 163.949C429.552 171.253 433.598 184.046 429.618 194.941Z" fill="#7C7669"/>
<path d="M346.696 53.4786H398.703V68.5077H346.696V53.4786Z" fill="#7C7669"/>
<path d="M346.696 80.8516H428.73V95.8808H346.696V80.8516Z" fill="#7C7669"/>
<path d="M488.846 256.873H504.377V271.902H488.846V256.873Z" fill="#7C7669"/>
<path d="M488.846 286.931H525.918V301.96H488.846V286.931Z" fill="#7C7669"/>
<path d="M113.181 354.061H233.351V369.09H113.181V354.061Z" fill="#7C7669"/>
<path d="M248.381 354.061H263.41V369.09H248.381V354.061Z" fill="#7C7669"/>
</svg>
