<svg width="540" height="512" viewBox="0 0 540 512" fill="none" xmlns="http://www.w3.org/2000/svg">
<path d="M494.326 189.175C517.19 210.924 528.87 244.782 535.58 285.561C542.291 326.34 544.03 373.792 521.166 403.697C498.302 433.601 450.586 446.206 408.337 440.768C366.088 435.331 329.307 412.1 290.538 382.195C252.017 352.043 211.507 315.466 212.005 279.383C212.75 243.3 254.253 207.958 292.774 186.209C331.544 164.46 367.082 156.305 402.124 157.046C437.166 157.787 471.213 167.426 494.326 189.175Z" fill="#CFCEB8" fill-opacity="0.5"/>
<g clip-path="url(#clip0_8_331)">
<mask id="mask0_8_331" style="mask-type:luminance" maskUnits="userSpaceOnUse" x="0" y="0" width="513" height="512">
<path d="M0.5 3.05176e-05H512.5V512H0.5V3.05176e-05Z" fill="white"/>
</mask>
<g mask="url(#mask0_8_331)">
<path d="M49.1885 243.064C37.9645 231.84 22.8605 226.883 8.19346 228.152C6.92446 242.819 11.8815 257.923 23.1055 269.147C34.3295 280.371 49.4335 285.328 64.1005 284.059C65.3695 269.392 60.4125 254.288 49.1885 243.064Z" stroke="#7C7669" stroke-width="15" stroke-miterlimit="10" stroke-linecap="round" stroke-linejoin="round"/>
<path d="M79.2056 210.981C90.4296 199.757 105.534 194.8 120.2 196.069C121.47 210.736 116.513 225.84 105.289 237.064C94.0646 248.288 78.9596 253.245 64.2936 251.975C63.0246 237.309 67.9816 222.205 79.2056 210.981Z" stroke="#7C7669" stroke-width="15" stroke-miterlimit="10" stroke-linecap="round" stroke-linejoin="round"/>
<path d="M82.5517 352.826C67.0797 349.28 51.6497 353.106 39.8997 361.973C46.6157 375.073 58.8407 385.235 74.3127 388.781C89.7847 392.326 105.215 388.501 116.965 379.633C110.248 366.534 98.0237 356.371 82.5517 352.826Z" stroke="#7C7669" stroke-width="15" stroke-miterlimit="10" stroke-linecap="round" stroke-linejoin="round"/>
<path d="M98.6426 292.075C103.545 284.921 110.151 279.178 117.744 275.285C126.611 287.035 130.436 302.465 126.891 317.937C123.346 333.409 113.183 345.634 100.084 352.35" stroke="#7C7669" stroke-width="15" stroke-miterlimit="10" stroke-linecap="round" stroke-linejoin="round"/>
<path d="M166.036 427.647C151.018 432.787 139.92 444.168 134.606 457.897C147.218 465.49 162.962 467.686 177.98 462.546C192.998 457.406 204.096 446.024 209.41 432.296C196.799 424.702 181.054 422.507 166.036 427.647Z" stroke="#7C7669" stroke-width="15" stroke-miterlimit="10" stroke-linecap="round" stroke-linejoin="round"/>
<path d="M150.436 386.573C145.296 371.555 147.491 355.811 155.085 343.199C168.813 348.513 180.195 359.611 185.335 374.629C190.475 389.647 188.279 405.391 180.686 418.003C166.957 412.689 155.576 401.591 150.436 386.573Z" stroke="#7C7669" stroke-width="15" stroke-miterlimit="10" stroke-linecap="round" stroke-linejoin="round"/>
<path d="M74.4229 138.214C69.7609 123.041 58.7349 111.589 45.1819 105.844C37.1939 118.209 34.5019 133.876 39.1639 149.049C43.8259 164.222 54.8509 175.674 68.4049 181.419C76.3939 169.054 79.0859 153.387 74.4229 138.214Z" stroke="#7C7669" stroke-width="15" stroke-miterlimit="10" stroke-linecap="round" stroke-linejoin="round"/>
<path d="M115.969 123.92C131.142 119.257 146.809 121.949 159.174 129.938C153.428 143.491 141.976 154.517 126.803 159.179C111.631 163.841 95.9637 161.149 83.5977 153.161C89.3437 139.608 100.796 128.582 115.969 123.92Z" stroke="#7C7669" stroke-width="15" stroke-miterlimit="10" stroke-linecap="round" stroke-linejoin="round"/>
<path d="M100.839 53.2378C111.267 41.2708 125.995 35.2888 140.714 35.5498C142.986 50.0938 139.077 65.5028 128.65 77.4698C118.222 89.4378 103.493 95.4188 88.7749 95.1578C86.5019 80.6138 90.4109 65.2048 100.839 53.2378Z" stroke="#7C7669" stroke-width="15" stroke-miterlimit="10" stroke-linecap="round" stroke-linejoin="round"/>
<path d="M428.21 157.089C441.442 183.189 448.899 212.711 448.899 243.975C448.899 350.235 362.759 436.375 256.5 436.375C150.24 436.375 64.1003 350.235 64.1003 243.975C64.1003 212.711 71.5573 183.189 84.7893 157.089" stroke="#7C7669" stroke-width="15" stroke-miterlimit="10" stroke-linecap="round" stroke-linejoin="round"/>
<path d="M463.812 243.064C475.036 231.84 490.14 226.883 504.807 228.152C506.076 242.819 501.119 257.923 489.895 269.147C478.671 280.371 463.567 285.328 448.9 284.059C447.631 269.392 452.588 254.288 463.812 243.064Z" stroke="#7C7669" stroke-width="15" stroke-miterlimit="10" stroke-linecap="round" stroke-linejoin="round"/>
<path d="M408.818 197.168C403.56 195.972 398.151 195.606 392.8 196.069C391.531 210.735 396.488 225.839 407.712 237.064C418.936 248.287 434.04 253.244 448.706 251.975" stroke="#7C7669" stroke-width="15" stroke-miterlimit="10" stroke-linecap="round" stroke-linejoin="round"/>
<path d="M430.448 352.826C445.92 349.28 461.35 353.106 473.1 361.973C466.384 375.073 454.159 385.235 438.687 388.781C423.215 392.326 407.785 388.501 396.035 379.633C402.752 366.534 414.976 356.371 430.448 352.826Z" stroke="#7C7669" stroke-width="15" stroke-miterlimit="10" stroke-linecap="round" stroke-linejoin="round"/>
<path d="M422.064 309.698C418.519 294.226 408.356 282.002 395.257 275.285C386.389 287.035 382.564 302.465 386.109 317.937C389.655 333.409 399.817 345.634 412.917 352.35C421.784 340.6 425.609 325.17 422.064 309.698Z" stroke="#7C7669" stroke-width="15" stroke-miterlimit="10" stroke-linecap="round" stroke-linejoin="round"/>
<path d="M346.963 427.647C361.981 432.787 373.079 444.168 378.393 457.897C365.781 465.49 350.037 467.686 335.019 462.546C320.001 457.406 308.903 446.024 303.589 432.296C316.2 424.702 331.945 422.507 346.963 427.647Z" stroke="#7C7669" stroke-width="15" stroke-miterlimit="10" stroke-linecap="round" stroke-linejoin="round"/>
<path d="M362.564 386.573C367.704 371.555 365.509 355.811 357.915 343.199C344.187 348.513 332.805 359.611 327.665 374.629C322.525 389.647 324.721 405.391 332.314 418.003C346.043 412.689 357.424 401.591 362.564 386.573Z" stroke="#7C7669" stroke-width="15" stroke-miterlimit="10" stroke-linecap="round" stroke-linejoin="round"/>
<path d="M438.577 138.214C443.239 123.041 454.265 111.589 467.818 105.844C475.806 118.209 478.498 133.876 473.836 149.049C469.174 164.222 458.149 175.674 444.595 181.419C436.606 169.054 433.914 153.387 438.577 138.214Z" stroke="#7C7669" stroke-width="15" stroke-miterlimit="10" stroke-linecap="round" stroke-linejoin="round"/>
<path d="M397.031 123.92C381.858 119.257 366.191 121.949 353.826 129.938C359.572 143.491 371.024 154.517 386.197 159.179C401.369 163.841 417.036 161.149 429.402 153.161C423.656 139.608 412.204 128.582 397.031 123.92Z" stroke="#7C7669" stroke-width="15" stroke-miterlimit="10" stroke-linecap="round" stroke-linejoin="round"/>
<path d="M412.161 53.2378C401.733 41.2708 387.005 35.2888 372.286 35.5498C370.014 50.0938 373.923 65.5028 384.35 77.4698C394.778 89.4378 409.507 95.4188 424.225 95.1578C426.498 80.6138 422.589 65.2048 412.161 53.2378Z" stroke="#7C7669" stroke-width="15" stroke-miterlimit="10" stroke-linecap="round" stroke-linejoin="round"/>
<path d="M224.433 476.458L256.5 436.375L288.567 476.458" stroke="#7C7669" stroke-width="15" stroke-miterlimit="10" stroke-linecap="round" stroke-linejoin="round"/>
<path d="M280.55 107.691C280.55 120.974 269.782 131.741 256.5 131.741C243.218 131.741 232.45 120.974 232.45 107.691C232.45 83.6412 256.5 51.5742 256.5 51.5742C256.5 51.5742 280.55 83.6412 280.55 107.691Z" stroke="#7C7669" stroke-width="15" stroke-miterlimit="10" stroke-linecap="round" stroke-linejoin="round"/>
<path d="M208.4 219.925C208.4 228.78 215.578 235.959 224.433 235.959C233.288 235.959 240.467 228.78 240.467 219.925V211.908C240.467 203.053 247.645 195.875 256.5 195.875C265.355 195.875 272.533 203.053 272.533 211.908V243.975C272.533 252.83 279.712 260.008 288.567 260.008C297.422 260.008 304.6 252.83 304.6 243.975V171.825C304.6 167.398 301.011 163.808 296.584 163.808H216.417C211.989 163.808 208.4 167.398 208.4 171.825V332.158C208.4 336.586 211.989 340.175 216.417 340.175H296.584C301.011 340.175 304.6 336.586 304.6 332.158V292.075" stroke="#7C7669" stroke-width="15" stroke-miterlimit="10" stroke-linecap="round" stroke-linejoin="round"/>
<path d="M256.5 131.742V163.808" stroke="#7C7669" stroke-width="15" stroke-miterlimit="10" stroke-linecap="round" stroke-linejoin="round"/>
</g>
</g>
<defs>
<clipPath id="clip0_8_331">
<rect width="512" height="512" fill="white" transform="translate(0.5)"/>
</clipPath>
</defs>
</svg>
