<svg width="610" height="475" viewBox="0 0 610 475" fill="none" xmlns="http://www.w3.org/2000/svg">
<path d="M573.401 244.404C570.271 279.47 535.045 311.412 499.412 335.277C463.778 359.143 427.735 374.932 395.215 370.549C362.535 365.979 333.566 341.076 309.79 312.398C286.015 283.72 267.622 251.107 269.407 219.778C271.379 188.29 293.557 157.739 322.016 127.347C350.447 97.3032 385 67.2303 418.997 68.4106C452.835 69.4032 486.145 101.302 516.936 136.318C547.886 171.522 576.691 209.525 573.401 244.404Z" fill="#ADA390" fill-opacity="0.5"/>
<g clip-path="url(#clip0_8_332)">
<path d="M103.906 341.406H44.5312V237.5C44.5312 229.314 37.8738 222.656 29.6875 222.656H14.8438C6.65742 222.656 0 229.314 0 237.5V378.516V467.578C0 471.682 3.31758 475 7.42188 475H37.1094C41.2137 475 44.5312 471.682 44.5312 467.578V385.938H74.2188V467.578C74.2188 471.682 77.5363 475 81.6406 475H111.328C115.432 475 118.75 471.682 118.75 467.578V378.516V356.25C118.75 348.064 112.093 341.406 103.906 341.406ZM14.8438 237.5H29.6875V341.406C29.6875 349.593 36.3449 356.25 44.5312 356.25H103.906V371.094H14.8438V237.5ZM29.6875 460.156H14.8438V385.938H29.6875V460.156ZM89.0625 460.156V385.938H103.906V460.156H89.0625Z" fill="#7C7669"/>
<path d="M460.156 222.656H445.312C437.126 222.656 430.469 229.314 430.469 237.5V341.406H371.094C362.907 341.406 356.25 348.064 356.25 356.25V378.516V467.578C356.25 471.682 359.568 475 363.672 475H393.359C397.464 475 400.781 471.682 400.781 467.578V385.938H430.469V467.578C430.469 471.682 433.786 475 437.891 475H467.578C471.682 475 475 471.682 475 467.578V378.516V237.5C475 229.314 468.343 222.656 460.156 222.656ZM371.094 356.25H430.469C438.655 356.25 445.312 349.593 445.312 341.406V237.5H460.156V371.094H371.094V356.25ZM385.938 460.156H371.094V385.938H385.938V460.156ZM445.312 460.156V385.938H460.156V460.156H445.312Z" fill="#7C7669"/>
<path d="M341.406 267.188H331.706L311.244 212.622C310.16 209.735 307.392 207.812 304.297 207.812C301.202 207.812 298.434 209.735 297.343 212.622L276.888 267.188H261.844L266.957 246.718C267.514 244.499 267.017 242.154 265.607 240.357C264.211 238.554 262.052 237.5 259.766 237.5H215.234C212.948 237.5 210.789 238.554 209.386 240.357C207.983 242.154 207.479 244.506 208.035 246.718L213.156 267.188H198.12L177.657 212.622C176.566 209.735 173.798 207.812 170.703 207.812C167.608 207.812 164.84 209.735 163.749 212.622L143.294 267.188H133.594C129.489 267.188 126.172 270.505 126.172 274.609V304.297V467.578C126.172 471.682 129.489 475 133.594 475H155.859C159.964 475 163.281 471.682 163.281 467.578V311.719H311.719V467.578C311.719 471.682 315.036 475 319.141 475H341.406C345.511 475 348.828 471.682 348.828 467.578V304.297V274.609C348.828 270.505 345.511 267.188 341.406 267.188ZM304.297 236.372L315.853 267.188H292.741L304.297 236.372ZM224.742 252.344H250.258L246.555 267.188H228.453L224.742 252.344ZM170.703 236.372L182.259 267.188H159.147L170.703 236.372ZM141.016 282.031H333.984V296.875H319.141H155.859H141.016V282.031ZM148.438 460.156H141.016V311.719H148.438V460.156ZM333.984 460.156H326.562V311.719H333.984V460.156Z" fill="#7C7669"/>
<path d="M467.393 89.0608C183.558 96.5495 12.7656 1.91318 11.066 0.955763C8.78008 -0.335643 5.95977 -0.3208 3.68125 1.01514C1.39531 2.33623 0 4.78545 0 7.42022V66.7952C0 69.1776 1.14297 71.419 3.08008 72.8218C5.02461 74.2171 7.50352 74.5956 9.76719 73.8386L28.5891 67.5671L47.834 80.3995C50.1125 81.9136 53.0441 82.062 55.4488 80.7706C57.8684 79.4718 59.375 76.9558 59.375 74.2171V38.7479C66.1586 41.3753 73.6844 44.1437 81.6406 46.9565V96.4827C81.6406 98.8651 82.7836 101.107 84.7207 102.509C86.6652 103.905 89.1367 104.283 91.4078 103.526L110.23 97.2546L129.475 110.087C130.714 110.903 132.154 111.326 133.594 111.326C134.796 111.326 135.998 111.037 137.097 110.451C139.509 109.159 141.016 106.643 141.016 103.905V65.6003C148.163 67.5819 155.614 69.5413 163.281 71.471V118.748C163.281 121.131 164.424 123.372 166.361 124.775C168.298 126.17 170.785 126.549 173.048 125.792L191.87 119.52L211.115 132.353C212.355 133.169 213.795 133.592 215.234 133.592C216.437 133.592 217.639 133.303 218.738 132.716C221.15 131.425 222.656 128.909 222.656 126.17V84.6151C229.9 85.9956 237.352 87.3093 244.922 88.5858V133.592C244.922 135.975 246.065 138.216 248.002 139.619C249.939 141.007 252.425 141.392 254.689 140.635L273.511 134.364L292.756 147.196C293.995 148.013 295.435 148.436 296.875 148.436C298.077 148.436 299.28 148.146 300.378 147.56C302.79 146.269 304.297 143.753 304.297 141.014V96.8909C311.63 97.7222 318.992 98.5386 326.562 99.2436V141.014C326.562 143.396 327.705 145.638 329.643 147.041C331.587 148.436 334.073 148.814 336.33 148.057L355.152 141.786L374.396 154.618C375.636 155.435 377.076 155.858 378.516 155.858C379.718 155.858 380.92 155.568 382.019 154.982C384.431 153.691 385.938 151.175 385.938 148.436V103.237C395.675 103.645 405.561 103.957 415.625 104.127V148.436C415.625 150.818 416.768 153.06 418.705 154.462C420.65 155.858 423.136 156.244 425.392 155.479L444.214 149.208L463.459 162.04C464.698 162.857 466.138 163.28 467.578 163.28C468.78 163.28 469.983 162.99 471.081 162.404C473.493 161.112 475 158.596 475 155.858V96.4827C475 94.4788 474.191 92.564 472.759 91.1687C471.326 89.7733 469.411 89.0089 467.393 89.0608ZM44.5312 60.353L33.8066 53.1983C32.5746 52.3745 31.1348 51.9515 29.6875 51.9515C28.9008 51.9515 28.1066 52.0776 27.3422 52.3374L14.8438 56.4936V19.5401C21.6867 22.8651 31.6246 27.4519 44.5312 32.803V60.353ZM126.172 90.0405L115.447 82.8858C113.54 81.6093 111.157 81.2753 108.983 82.0249L96.4844 86.1812V52.0405C105.732 55.1206 115.633 58.2304 126.172 61.3401V90.0405ZM207.812 112.306L197.088 105.151C195.18 103.867 192.798 103.541 190.623 104.291L178.125 108.447V75.1374C187.625 77.3788 197.607 79.5237 207.812 81.6167V112.306ZM289.453 127.15L278.729 119.995C276.821 118.719 274.431 118.385 272.264 119.134L259.766 123.291V90.9237C269.421 92.4155 279.307 93.8034 289.453 95.0948V127.15ZM371.094 134.572L360.369 127.417C358.462 126.141 356.079 125.814 353.905 126.556L341.406 130.712V100.439C351.121 101.218 361.015 101.886 371.094 102.435V134.572ZM460.156 141.994L449.432 134.839C448.2 134.015 446.76 133.592 445.312 133.592C444.526 133.592 443.732 133.718 442.967 133.978L430.469 138.134V104.283C440.206 104.372 450.129 104.268 460.156 104.068V141.994Z" fill="#7C7669"/>
<path d="M371.094 200.391H363.672C359.568 200.391 356.25 203.708 356.25 207.812C356.25 211.917 359.568 215.234 363.672 215.234H371.094C375.198 215.234 378.516 211.917 378.516 207.812C378.516 203.708 375.198 200.391 371.094 200.391Z" fill="#7C7669"/>
<path d="M385.938 178.125C381.833 178.125 378.516 181.443 378.516 185.547V192.969C378.516 197.073 381.833 200.391 385.938 200.391C390.042 200.391 393.359 197.073 393.359 192.969V185.547C393.359 181.443 390.042 178.125 385.938 178.125Z" fill="#7C7669"/>
<path d="M378.516 230.078C378.516 234.182 381.833 237.5 385.938 237.5C390.042 237.5 393.359 234.182 393.359 230.078V222.656C393.359 218.552 390.042 215.234 385.938 215.234C381.833 215.234 378.516 218.552 378.516 222.656V230.078Z" fill="#7C7669"/>
<path d="M400.781 215.234H408.203C412.307 215.234 415.625 211.917 415.625 207.812C415.625 203.708 412.307 200.391 408.203 200.391H400.781C396.677 200.391 393.359 203.708 393.359 207.812C393.359 211.917 396.677 215.234 400.781 215.234Z" fill="#7C7669"/>
<path d="M304.297 29.6875H296.875C292.771 29.6875 289.453 33.0051 289.453 37.1094C289.453 41.2137 292.771 44.5312 296.875 44.5312H304.297C308.401 44.5312 311.719 41.2137 311.719 37.1094C311.719 33.0051 308.401 29.6875 304.297 29.6875Z" fill="#7C7669"/>
<path d="M319.141 7.42188C315.036 7.42188 311.719 10.7395 311.719 14.8438V22.2656C311.719 26.3699 315.036 29.6875 319.141 29.6875C323.245 29.6875 326.562 26.3699 326.562 22.2656V14.8438C326.562 10.7395 323.245 7.42188 319.141 7.42188Z" fill="#7C7669"/>
<path d="M311.719 59.375C311.719 63.4793 315.036 66.7969 319.141 66.7969C323.245 66.7969 326.562 63.4793 326.562 59.375V51.9531C326.562 47.8488 323.245 44.5312 319.141 44.5312C315.036 44.5312 311.719 47.8488 311.719 51.9531V59.375Z" fill="#7C7669"/>
<path d="M333.984 44.5312H341.406C345.511 44.5312 348.828 41.2137 348.828 37.1094C348.828 33.0051 345.511 29.6875 341.406 29.6875H333.984C329.88 29.6875 326.562 33.0051 326.562 37.1094C326.562 41.2137 329.88 44.5312 333.984 44.5312Z" fill="#7C7669"/>
<path d="M452.734 25.9766C452.734 15.7418 444.414 7.42188 434.18 7.42188C423.945 7.42188 415.625 15.7418 415.625 25.9766C415.625 36.2113 423.945 44.5312 434.18 44.5312C444.414 44.5312 452.734 36.2113 452.734 25.9766ZM430.469 25.9766C430.469 23.9355 432.139 22.2656 434.18 22.2656C436.221 22.2656 437.891 23.9355 437.891 25.9766C437.891 28.0176 436.221 29.6875 434.18 29.6875C432.139 29.6875 430.469 28.0176 430.469 25.9766Z" fill="#7C7669"/>
<path d="M207.812 33.3984C207.812 23.1637 199.493 14.8438 189.258 14.8438C179.023 14.8438 170.703 23.1637 170.703 33.3984C170.703 43.6332 179.023 51.9531 189.258 51.9531C199.493 51.9531 207.812 43.6332 207.812 33.3984ZM185.547 33.3984C185.547 31.3574 187.217 29.6875 189.258 29.6875C191.299 29.6875 192.969 31.3574 192.969 33.3984C192.969 35.4395 191.299 37.1094 189.258 37.1094C187.217 37.1094 185.547 35.4395 185.547 33.3984Z" fill="#7C7669"/>
<path d="M222.656 155.859C218.552 155.859 215.234 159.177 215.234 163.281V170.703H207.812C203.708 170.703 200.391 174.021 200.391 178.125C200.391 182.229 203.708 185.547 207.812 185.547H215.234V192.969C215.234 197.073 218.552 200.391 222.656 200.391C226.761 200.391 230.078 197.073 230.078 192.969V185.547H237.5C241.604 185.547 244.922 182.229 244.922 178.125C244.922 174.021 241.604 170.703 237.5 170.703H230.078V163.281C230.078 159.177 226.761 155.859 222.656 155.859Z" fill="#7C7669"/>
<path d="M111.692 168.811L115.432 154.286C116.078 151.785 115.366 149.12 113.562 147.265C111.766 145.417 109.124 144.637 106.6 145.202L91.9645 148.519L79.3028 140.474C77.1134 139.079 74.3673 138.937 72.0442 140.073C69.7212 141.209 68.17 143.48 67.9251 146.062L66.5743 160.995L55.011 170.555C53.0145 172.202 52.0274 174.763 52.3837 177.331C52.7548 179.891 54.4247 182.073 56.8071 183.09L70.5895 189.005L76.104 202.951C77.054 205.356 79.1841 207.1 81.7372 207.538C82.1602 207.612 82.5833 207.649 83.0063 207.649C85.1216 207.649 87.17 206.744 88.5876 205.118L98.4735 193.837L113.451 192.902C116.034 192.746 118.342 191.247 119.552 188.961C120.754 186.675 120.68 183.921 119.366 181.695L111.692 168.811ZM94.4731 179.216C92.4989 179.342 90.6583 180.248 89.3594 181.732L85.4555 186.193L83.2735 180.686C82.5462 178.845 81.1212 177.375 79.3028 176.589L73.8552 174.251L78.4196 170.473C79.9485 169.219 80.9059 167.4 81.0841 165.426L81.6184 159.518L86.6282 162.702C88.2981 163.764 90.3391 164.098 92.2466 163.682L98.0282 162.368L96.5512 168.105C96.0614 170.02 96.3583 172.046 97.3602 173.753L100.396 178.852L94.4731 179.216Z" fill="#7C7669"/>
</g>
<defs>
<clipPath id="clip0_8_332">
<rect width="475" height="475" fill="white"/>
</clipPath>
</defs>
</svg>
