<svg width="568" height="488" viewBox="0 0 568 488" fill="none" xmlns="http://www.w3.org/2000/svg">
<path d="M208.486 10.5074C240.674 18.2714 264.955 58.3684 289.483 98.8949C313.921 139.76 338.516 181.393 329.627 214.006C321.076 246.71 279.164 270.608 238.155 291.123C197.485 311.728 157.719 328.95 115.696 325.429C73.7968 322.123 29.3029 297.985 10.7828 261.435C-7.73728 224.885 -0.497782 176.047 18.1021 138.975C36.9163 101.781 66.8766 76.4764 101.753 51.7707C136.629 27.0651 176.512 2.61972 208.486 10.5074Z" fill="#B7BEC6" fill-opacity="0.5"/>
<g clip-path="url(#clip0_8_333)">
<path d="M539.684 409.503C535.457 402.049 528.507 396.665 520.274 394.556V282.237C533.812 278.719 543.887 266.503 543.887 251.871V226.983L494.465 78.7097H422.965C412.261 33.6563 371.781 0 323.5 0C275.219 0 234.739 33.6563 224.035 78.7097H152.535L103.113 226.983V251.871C103.113 266.503 113.188 278.719 126.726 282.237V394.556C118.493 396.657 111.543 402.049 107.316 409.503C91.6764 411.329 79.5 424.654 79.5 440.774V488H567.5V440.774C567.5 424.654 555.324 411.329 539.684 409.503ZM528.145 251.871C528.145 260.553 521.085 267.613 512.403 267.613C503.722 267.613 496.661 260.553 496.661 251.871V236.129H528.145V251.871ZM483.115 94.4516L525.099 220.387H495.103L467.114 94.4516H483.115ZM450.994 94.4516L478.983 220.387H448.231L427.239 94.4516H450.994ZM480.919 236.129V251.871C480.919 260.553 473.859 267.613 465.177 267.613C456.496 267.613 449.435 260.553 449.435 251.871V236.129H480.919ZM432.277 220.387H401.383L396.251 174.169C405.98 164.322 413.654 152.484 418.778 139.371L432.277 220.387ZM433.694 236.129V251.871C433.694 260.553 426.633 267.613 417.952 267.613C409.27 267.613 402.21 260.553 402.21 251.871V236.129H433.694ZM323.5 15.7419C371.237 15.7419 410.081 54.5852 410.081 102.323C410.081 132.642 394.386 159.324 370.726 174.798V124.818C384.264 121.299 394.339 109.084 394.339 94.4516V55.0968H378.597V94.4516C378.597 100.253 375.409 105.274 370.726 108.005V55.0968H354.984V108.005C350.301 105.274 347.113 100.253 347.113 94.4516V55.0968H331.371V94.4516C331.371 109.084 341.446 121.299 354.984 124.818V182.89C345.208 186.723 334.614 188.903 323.5 188.903C312.386 188.903 301.792 186.723 292.016 182.89V124.818C305.554 121.299 315.629 109.084 315.629 94.4516C315.629 78.2295 303.366 47.2258 284.145 47.2258C264.924 47.2258 252.661 78.2295 252.661 94.4516C252.661 109.084 262.736 121.299 276.274 124.818V174.798C252.614 159.324 236.919 132.642 236.919 102.323C236.919 54.5852 275.763 15.7419 323.5 15.7419ZM354.984 236.129H386.468V251.871C386.468 260.553 379.407 267.613 370.726 267.613C362.044 267.613 354.984 260.553 354.984 251.871V236.129ZM354.559 220.387L353.433 200.159C363.658 197.018 373.174 192.303 381.761 186.329L385.547 220.387H354.559ZM339.242 236.129V251.871C339.242 260.553 332.182 267.613 323.5 267.613C314.818 267.613 307.758 260.553 307.758 251.871V236.129H339.242ZM308.207 220.387L309.143 203.52C313.85 204.181 318.612 204.645 323.5 204.645C328.388 204.645 333.15 204.181 337.857 203.52L338.793 220.387H308.207ZM261.453 220.387L265.239 186.329C273.826 192.303 283.342 197.018 293.567 200.159L292.441 220.387H261.453ZM292.016 236.129V251.871C292.016 260.553 284.956 267.613 276.274 267.613C267.593 267.613 260.532 260.553 260.532 251.871V236.129H292.016ZM284.145 110.194C275.463 110.194 268.403 103.133 268.403 94.4516C268.403 82.6845 278.258 62.9677 284.145 62.9677C290.033 62.9677 299.887 82.6845 299.887 94.4516C299.887 103.133 292.827 110.194 284.145 110.194ZM228.222 139.379C233.338 152.492 241.02 164.322 250.749 174.177L245.617 220.387H214.723L228.222 139.379ZM244.79 236.129V251.871C244.79 260.553 237.73 267.613 229.048 267.613C220.367 267.613 213.306 260.553 213.306 251.871V236.129H244.79ZM219.761 94.4516L198.769 220.387H168.017L196.006 94.4516H219.761ZM197.565 236.129V251.871C197.565 260.553 190.504 267.613 181.823 267.613C173.141 267.613 166.081 260.553 166.081 251.871V236.129H197.565ZM163.885 94.4516H179.886L151.897 220.387H121.901L163.885 94.4516ZM118.855 251.871V236.129H150.339V251.871C150.339 260.553 143.278 267.613 134.597 267.613C125.915 267.613 118.855 260.553 118.855 251.871ZM221.177 472.258H95.2419V456.516H221.177V472.258ZM95.2419 440.774C95.2419 432.093 102.302 425.032 110.685 425.032L117.879 425.449L119.815 419.893C122.027 413.549 127.969 409.29 134.597 409.29C135.691 409.29 136.864 409.456 138.28 409.786L143.05 410.935L146.183 407.165C152.259 399.845 164.152 399.845 170.237 407.165L173.369 410.935L178.139 409.786C179.556 409.456 180.729 409.29 181.823 409.29C188.45 409.29 194.393 413.549 196.596 419.893L198.533 425.449L204.412 425.166C204.861 425.142 205.294 425.087 205.435 425.032C214.117 425.032 221.177 432.093 221.177 440.774H95.2419ZM378.597 472.258H268.403V314.839H378.597V472.258ZM410.081 440.774V472.258H394.339V299.097H252.661V472.258H236.919V440.774C236.919 424.654 224.743 411.329 209.103 409.503C203.145 398.995 191.827 392.47 179.044 393.682C169.135 384.819 153.849 383.647 142.468 390.085V282.253C148.639 280.647 154.117 277.31 158.21 272.666C163.979 279.223 172.433 283.355 181.823 283.355C191.213 283.355 199.666 279.223 205.435 272.674C211.205 279.223 219.658 283.355 229.048 283.355C238.438 283.355 246.892 279.223 252.661 272.674C258.431 279.223 266.884 283.355 276.274 283.355C285.664 283.355 294.118 279.223 299.887 272.674C305.657 279.223 314.11 283.355 323.5 283.355C332.89 283.355 341.343 279.223 347.113 272.674C352.882 279.223 361.336 283.355 370.726 283.355C380.116 283.355 388.569 279.223 394.339 272.674C400.108 279.223 408.562 283.355 417.952 283.355C427.342 283.355 435.795 279.223 441.565 272.674C447.334 279.223 455.787 283.355 465.177 283.355C474.567 283.355 483.021 279.223 488.79 272.674C492.883 277.318 498.361 280.663 504.532 282.261V390.093C493.151 383.647 477.865 384.82 467.956 393.69C455.205 392.462 443.847 399.003 437.897 409.511C422.257 411.329 410.081 424.654 410.081 440.774ZM551.758 472.258H425.823V456.516H551.758V472.258ZM425.823 440.774C425.823 432.093 432.883 425.032 441.265 425.032L448.459 425.449L450.396 419.893C452.608 413.549 458.55 409.29 465.177 409.29C466.271 409.29 467.444 409.456 468.861 409.786L473.631 410.935L476.763 407.165C482.84 399.845 494.733 399.845 500.817 407.165L503.95 410.935L508.72 409.786C510.136 409.456 511.309 409.29 512.403 409.29C519.031 409.29 524.973 413.549 527.177 419.893L529.113 425.449L534.993 425.166C535.442 425.142 535.874 425.087 536.016 425.032C544.698 425.032 551.758 432.093 551.758 440.774H425.823Z" fill="#7C7669"/>
<path d="M299.887 385.677H284.145V401.419H299.887V385.677Z" fill="#7C7669"/>
<path d="M166.081 306.968V369.936H229.048V306.968H166.081ZM213.306 354.194H181.823V322.71H213.306V354.194Z" fill="#7C7669"/>
<path d="M417.952 306.968V369.936H480.919V306.968H417.952ZM465.177 354.194H433.694V322.71H465.177V354.194Z" fill="#7C7669"/>
</g>
<defs>
<clipPath id="clip0_8_333">
<rect width="488" height="488" fill="white" transform="translate(79.5)"/>
</clipPath>
</defs>
</svg>
