<svg width="566" height="499" viewBox="0 0 566 499" fill="none" xmlns="http://www.w3.org/2000/svg">
<path d="M419.571 422.95C382.337 424.159 343.342 395.448 310.873 359.72C278.426 323.695 252.803 280.676 261.831 246.742C270.882 212.51 314.722 187.523 351.371 168.456C387.997 149.686 417.295 136.676 452.51 132.477C487.886 128.14 529.477 132.635 549.587 155.643C569.56 178.493 568.167 220.313 560.997 257.375C553.827 294.438 541.017 326.901 516.887 358.549C492.597 390.335 456.965 421.603 419.571 422.95Z" fill="#B7BEC6" fill-opacity="0.5"/>
<path d="M206.377 491H9.78088V451.876H491V491H294.404" stroke="#7C7669" stroke-width="15" stroke-miterlimit="10" stroke-linecap="round" stroke-linejoin="round"/>
<path d="M471.438 450.899V250.391H325.051" stroke="#7C7669" stroke-width="15" stroke-miterlimit="10" stroke-linecap="round" stroke-linejoin="round"/>
<path d="M300.236 194.653V163.897C283.51 163.897 269.952 150.339 269.952 133.614V125.195" stroke="#7C7669" stroke-width="15" stroke-miterlimit="10" stroke-linecap="round" stroke-linejoin="round"/>
<path d="M230.829 125.195V133.613C230.829 150.338 217.27 163.896 200.545 163.896V194.652" stroke="#7C7669" stroke-width="15" stroke-miterlimit="10" stroke-linecap="round" stroke-linejoin="round"/>
<path d="M250.391 127.06C219.373 127.06 194.23 101.917 194.23 70.8995V9.78076H306.55V70.9005C306.551 101.917 281.408 127.06 250.391 127.06Z" stroke="#7C7669" stroke-width="15" stroke-miterlimit="10" stroke-linecap="round" stroke-linejoin="round"/>
<path d="M308.145 29.5332H348.565V48.4318C348.565 71.636 329.754 90.4456 306.551 90.4456" stroke="#7C7669" stroke-width="15" stroke-miterlimit="10" stroke-linecap="round" stroke-linejoin="round"/>
<path d="M192.636 29.5332H152.216V48.4318C152.216 71.636 171.026 90.4456 194.23 90.4456" stroke="#7C7669" stroke-width="15" stroke-miterlimit="10" stroke-linecap="round" stroke-linejoin="round"/>
<path d="M242.028 334.506H258.753V412.753" stroke="#7C7669" stroke-width="15" stroke-miterlimit="10" stroke-linecap="round" stroke-linejoin="round"/>
<path d="M123.97 412.753H85.1131C85.1131 412.753 87.5965 409.325 112.254 374.32C116.816 367.843 120.738 361.241 120.738 354.817C120.738 344.708 112.003 335.306 101.227 335.306C91.7455 335.306 83.8426 342.07 82.082 351.036" stroke="#7C7669" stroke-width="15" stroke-miterlimit="10" stroke-linecap="round" stroke-linejoin="round"/>
<path d="M378.561 350.276C380.326 341.287 388.249 334.506 397.756 334.506C408.56 334.506 417.318 343.264 417.318 354.068C417.318 364.872 408.56 373.629 397.756 373.629" stroke="#7C7669" stroke-width="15" stroke-miterlimit="10" stroke-linecap="round" stroke-linejoin="round"/>
<path d="M397.756 373.629C408.56 373.629 417.318 382.387 417.318 393.191C417.318 403.995 408.56 412.753 397.756 412.753C387.878 412.753 379.71 405.432 378.383 395.92C378.259 395.028 378.194 394.117 378.194 393.191" stroke="#7C7669" stroke-width="15" stroke-miterlimit="10" stroke-linecap="round" stroke-linejoin="round"/>
<path d="M175.73 295.782H29.3427V450.899" stroke="#7C7669" stroke-width="15" stroke-miterlimit="10" stroke-linecap="round" stroke-linejoin="round"/>
<path d="M324.074 195.631H176.708V451.877H324.074V195.631Z" stroke="#7C7669" stroke-width="15" stroke-miterlimit="10" stroke-linecap="round" stroke-linejoin="round"/>
<path d="M397.756 80.7988C397.756 72.5829 391.095 65.9221 382.879 65.9221C391.095 65.9221 397.756 59.2613 397.756 51.0454C397.756 59.2613 404.417 65.9221 412.633 65.9221C404.416 65.9221 397.756 72.5829 397.756 80.7988Z" stroke="#7C7669" stroke-width="15" stroke-miterlimit="10" stroke-linecap="round" stroke-linejoin="round"/>
<path d="M103.025 131.345C103.025 123.129 96.3641 116.468 88.1482 116.468C96.3641 116.468 103.025 109.807 103.025 101.591C103.025 109.807 109.686 116.468 117.902 116.468C109.686 116.469 103.025 123.129 103.025 131.345Z" stroke="#7C7669" stroke-width="15" stroke-miterlimit="10" stroke-linecap="round" stroke-linejoin="round"/>
</svg>
