<svg width="531" height="481" viewBox="0 0 531 481" fill="none" xmlns="http://www.w3.org/2000/svg">
<path d="M431.396 409.345C407.676 422.562 376.87 423.49 341.651 418.565C306.432 413.639 267.003 402.921 248.288 376.483C229.573 350.045 231.432 307.618 246.714 274.301C261.995 240.983 290.496 216.713 324.988 192.517C359.619 168.589 400.038 144.673 429.554 154.317C459.007 164.166 477.418 207.309 485.425 244.523C493.368 281.94 490.971 313.224 481.392 341.822C471.813 370.42 455.179 395.924 431.396 409.345Z" fill="#CFCEB8" fill-opacity="0.5"/>
<path d="M382.467 82.4327V111.966" stroke="#7C7669" stroke-width="15" stroke-miterlimit="10" stroke-linecap="round" stroke-linejoin="round"/>
<path d="M397.234 97.2002H367.7" stroke="#7C7669" stroke-width="15" stroke-miterlimit="10" stroke-linecap="round" stroke-linejoin="round"/>
<path d="M65.749 194.377V223.91" stroke="#7C7669" stroke-width="15" stroke-miterlimit="10" stroke-linecap="round" stroke-linejoin="round"/>
<path d="M80.516 209.144H50.9824" stroke="#7C7669" stroke-width="15" stroke-miterlimit="10" stroke-linecap="round" stroke-linejoin="round"/>
<mask id="mask0_8_334" style="mask-type:luminance" maskUnits="userSpaceOnUse" x="0" y="0" width="481" height="481">
<path d="M0 3.05176e-05H481V481H0V3.05176e-05Z" fill="white"/>
</mask>
<g mask="url(#mask0_8_334)">
<path d="M96.9185 304.715C114.67 304.574 114.773 291.247 132.713 291.247C150.747 291.247 150.747 304.721 168.782 304.721C186.814 304.721 186.814 291.247 204.848 291.247C222.882 291.247 222.882 304.721 240.917 304.721C258.953 304.721 258.952 291.247 276.987 291.247C295.023 291.247 295.023 304.721 313.058 304.721C331.095 304.721 331.095 291.247 349.13 291.247C366.781 291.247 367.17 304.142 384.081 304.695" stroke="#7C7669" stroke-width="15" stroke-miterlimit="10" stroke-linecap="round" stroke-linejoin="round"/>
<path d="M133.74 209.053C150.717 209.375 153.291 222.166 170.639 222.166C188.208 222.166 188.208 209.038 205.776 209.038C223.347 209.038 223.347 222.166 240.917 222.166C258.488 222.166 258.488 209.038 276.058 209.038C293.63 209.038 293.63 222.166 311.201 222.166C328.679 222.166 329.956 209.183 347.26 209.044" stroke="#7C7669" stroke-width="15" stroke-miterlimit="10" stroke-linecap="round" stroke-linejoin="round"/>
<path d="M169.003 139.513C184.78 138.419 189.367 125.6 206.186 125.6C223.757 125.6 223.757 138.729 241.327 138.729C258.898 138.729 258.898 125.6 276.469 125.6C294.041 125.6 294.041 138.729 311.612 138.729L311.997 138.691" stroke="#7C7669" stroke-width="15" stroke-miterlimit="10" stroke-linecap="round" stroke-linejoin="round"/>
<path d="M311.997 165.747V96.0392C311.997 89.2225 306.471 83.6976 299.654 83.6976H181.346C174.529 83.6976 169.003 89.2225 169.003 96.0392V165.747" stroke="#7C7669" stroke-width="15" stroke-miterlimit="10" stroke-linecap="round" stroke-linejoin="round"/>
<path d="M192.117 165.746H146.082C139.265 165.746 133.739 171.272 133.739 178.088V251.143" stroke="#7C7669" stroke-width="15" stroke-miterlimit="10" stroke-linecap="round" stroke-linejoin="round"/>
<path d="M347.26 251.143V178.088C347.26 171.272 341.734 165.747 334.917 165.747H225.031" stroke="#7C7669" stroke-width="15" stroke-miterlimit="10" stroke-linecap="round" stroke-linejoin="round"/>
<path d="M384.081 349.795V263.484C384.081 256.668 378.555 251.143 371.739 251.143H109.261C102.444 251.143 96.9185 256.668 96.9185 263.484V349.795" stroke="#7C7669" stroke-width="15" stroke-miterlimit="10" stroke-linecap="round" stroke-linejoin="round"/>
<path d="M158.561 349.795H413.189C422.483 349.795 430.018 357.331 430.018 366.625C430.018 375.92 422.483 383.455 413.189 383.455H67.8108C58.5168 383.455 50.9814 375.92 50.9814 366.625C50.9814 357.331 58.5168 349.795 67.8108 349.795H125.157" stroke="#7C7669" stroke-width="15" stroke-miterlimit="10" stroke-linecap="round" stroke-linejoin="round"/>
<path d="M225.085 383.455V396.383C225.085 418.158 208.539 436.368 186.863 438.449L159.458 441.081C145.524 442.419 134.884 454.127 134.884 468.127C134.884 471.345 137.494 473.954 140.712 473.954H340.287C343.506 473.954 346.115 471.345 346.115 468.127C346.115 454.127 335.477 442.419 321.541 441.081L294.136 438.449C272.461 436.368 255.915 418.158 255.915 396.383V383.455" stroke="#7C7669" stroke-width="15" stroke-miterlimit="10" stroke-linecap="round" stroke-linejoin="round"/>
<path d="M247.76 83.6973C261.258 76.8834 288.877 59.8042 288.882 34.1139C288.886 19.061 276.874 7.04541 261.822 7.04635C251.973 7.04635 246.286 11.7126 243.301 15.4761C241.826 17.3343 239.014 17.2723 237.503 15.4432C234.315 11.5811 228.331 6.788 218.379 7.05668C203.782 7.45219 192.042 19.6867 192.118 34.2896C192.248 59.8831 219.772 76.8984 233.239 83.6973" stroke="#7C7669" stroke-width="15" stroke-miterlimit="10" stroke-linecap="round" stroke-linejoin="round"/>
</g>
</svg>
