<svg width="1029" height="620" viewBox="0 0 1029 620" fill="none" xmlns="http://www.w3.org/2000/svg">
<path d="M676.699 123.064C694.683 147.001 688.563 188.903 682.369 231.247C675.918 273.774 669.135 316.928 644.187 334.523C619.422 352.377 576.456 344.895 536.065 335.575C495.857 326.514 458.226 315.616 430.945 288.974C403.627 262.553 386.476 220.129 394.574 184.013C402.671 147.897 435.796 118.051 470.079 102.941C504.582 87.867 540.022 87.4906 578.547 90.3611C617.071 93.2316 658.937 99.1652 676.699 123.064Z" fill="#B7BEC6" fill-opacity="0.5"/>
<path d="M374.538 319.056C376.172 319.056 377.807 317.968 378.352 316.335C392.517 269.528 433.38 240.682 463.89 182.445C463.346 185.711 464.435 188.432 466.07 190.065C469.339 192.242 474.787 189.521 476.966 184.622C478.601 181.357 479.146 180.268 479.69 176.458C480.235 173.737 479.146 170.471 476.966 168.838C482.415 168.838 483.504 175.37 483.504 180.812V182.445C481.325 209.658 449.725 228.708 448.09 259.187C448.09 261.364 449.725 263.541 451.904 263.541C454.083 263.541 456.263 261.908 456.263 259.731C457.352 242.315 470.973 227.619 479.69 213.468C480.235 216.734 480.78 219.455 481.325 222.177C476.966 228.164 472.608 236.872 470.973 246.669C470.428 249.39 472.608 251.567 474.787 251.567C476.966 251.567 478.601 249.934 478.601 248.301C480.235 239.049 485.139 230.885 488.953 225.442C490.042 224.354 490.042 222.721 489.497 221.632C486.228 213.468 486.228 200.95 490.042 192.786C490.587 191.698 490.587 191.153 490.042 190.065C491.132 188.976 490.587 187.888 491.132 182.989C496.035 178.635 506.932 168.294 511.836 163.396C514.56 191.153 514.015 218.911 513.47 246.669C513.47 253.2 512.925 260.82 510.201 267.351C505.298 277.148 493.856 282.59 483.504 288.577C451.359 307.082 441.552 312.525 421.938 345.725C421.393 346.814 421.393 347.902 421.393 348.991C420.849 350.624 420.849 352.257 421.938 353.345C423.573 354.978 426.297 355.522 428.476 354.434C434.469 351.712 443.732 333.207 455.718 321.778C482.415 297.286 501.484 299.463 514.56 283.135C528.725 265.718 525.456 240.137 523.277 217.822C521.642 196.596 521.642 177.002 520.008 155.232C521.642 153.599 522.187 153.055 524.911 149.245C550.519 181.901 590.836 178.091 603.912 152.51C605.002 150.333 610.995 138.904 606.091 138.904C606.091 138.904 606.091 138.359 605.547 138.359C603.912 136.727 601.733 136.727 600.098 137.815C594.65 141.625 585.933 142.169 578.85 138.904C573.401 136.182 569.043 131.828 562.505 129.107C555.967 126.385 548.339 126.93 541.801 129.651C540.167 130.195 540.167 130.74 536.353 132.372C549.429 113.323 564.139 88.2867 573.401 71.4144C580.484 100.805 614.809 107.336 624.616 92.6408C628.974 85.5654 626.25 76.8571 621.347 69.7816C631.154 75.7685 648.043 78.4899 656.216 68.1488C662.754 60.529 660.03 49.0994 654.037 43.1125C648.043 36.5813 643.14 36.037 635.512 35.4927C628.974 34.9484 622.436 34.4042 614.809 33.8599C615.354 33.3156 615.354 32.7714 615.354 31.6828C619.167 15.8991 591.926 3.92518 575.581 2.29238C557.057 0.115304 549.429 10.4564 552.153 21.3417C544.525 17.5319 536.353 13.722 528.18 12.0892C522.732 11.0007 515.104 10.4564 508.567 12.0892C488.408 18.0761 493.856 44.201 527.636 45.2895C500.394 67.0603 532.539 94.8179 560.87 76.8571C553.243 90.4638 543.436 106.248 534.174 120.398C534.174 117.677 534.174 115.5 534.174 112.779C534.174 101.349 529.815 96.4507 529.27 95.3622C522.187 84.4768 508.567 76.3128 503.663 67.6045C503.118 63.7946 498.215 62.7061 496.035 65.9717C489.497 76.3128 485.684 92.6408 493.856 106.248C502.573 120.943 514.56 124.208 526.546 130.74C523.277 135.638 520.008 139.448 517.284 142.713C516.194 138.904 515.649 137.271 514.56 135.638C509.656 123.664 495.491 120.398 487.318 134.005C482.959 141.081 483.504 149.789 482.959 161.219C480.78 159.586 479.146 159.042 476.966 159.042C476.966 158.497 476.966 157.953 476.421 157.409C469.883 147.068 462.256 137.271 453.539 129.107C451.359 126.93 444.821 120.943 437.738 124.208C431.745 126.385 429.566 133.461 429.566 138.904C429.566 145.435 431.2 147.612 450.27 184.622C449.725 185.711 449.18 186.799 448.635 187.888C436.104 184.622 401.235 175.914 389.248 179.724C378.897 182.989 375.628 194.963 384.89 202.583C379.441 208.57 378.897 216.19 384.89 221.088C388.159 223.809 390.883 224.898 394.152 224.898C404.504 225.442 409.407 227.619 418.124 231.429C398.511 256.465 377.262 281.502 368 312.525C370.179 316.335 371.814 319.056 374.538 319.056ZM503.663 103.526C498.76 95.3622 499.849 85.5654 502.573 77.9456C508.567 85.0211 519.463 92.6408 524.911 100.805L528.18 98.6278L524.911 101.349C529.27 107.88 527.636 111.69 528.18 122.576C518.918 117.677 510.201 114.412 503.663 103.526ZM547.794 137.271C552.153 135.094 557.601 135.094 561.96 136.727C570.677 140.536 577.76 150.333 593.56 149.245C585.933 157.953 577.76 161.219 570.133 161.219C558.691 161.219 547.794 156.864 534.718 143.258C536.353 142.713 537.987 142.169 539.077 141.625C542.346 140.536 544.525 138.904 547.794 137.271ZM619.712 88.831C616.988 93.1851 606.636 93.7294 598.464 89.9195C590.836 86.1096 585.388 79.0341 583.208 70.8701C582.119 64.3389 581.574 57.2634 581.574 51.2765C584.843 51.8208 591.381 52.365 594.65 51.2765C609.36 66.516 615.353 71.9587 618.622 77.9456C620.802 82.2998 621.347 86.6539 619.712 88.831ZM636.602 44.201C643.685 44.7453 645.864 45.2895 650.223 49.6437C654.037 53.4536 655.126 59.9848 651.857 64.3389C648.043 69.2373 640.416 68.6931 634.423 67.0602C626.25 64.8832 624.616 62.1618 616.988 56.7192C611.54 52.9093 603.367 49.6437 599.553 45.8338C595.74 42.0239 599.553 45.8338 599.009 45.8338C599.009 44.7453 597.919 43.6567 597.374 43.1125C597.919 43.1125 600.098 42.5682 608.271 43.1125C616.443 42.5682 628.429 43.6567 636.602 44.201ZM576.67 11.0007C586.477 12.0892 595.74 15.8991 603.367 21.3417C605.002 22.4303 609.905 26.7844 609.36 30.05C607.181 32.7714 591.926 34.4042 589.202 34.9484C582.664 31.1386 574.491 26.7844 568.498 29.5058C565.229 26.2402 561.96 21.3418 561.96 17.5319C561.415 11.0007 570.132 9.91213 576.67 11.0007ZM516.194 34.9484C511.291 32.7714 508.022 29.5058 507.477 26.2402C506.932 23.5188 510.201 21.3418 513.47 20.2532C515.105 19.7089 517.284 19.7089 520.008 19.7089C534.174 19.7089 546.16 26.2402 558.691 33.3156C552.698 34.9484 546.705 37.6698 532.539 37.6698C528.18 37.6698 521.642 37.1255 516.194 34.9484ZM543.981 75.2243C537.987 75.2243 531.449 71.9587 529.27 68.1488C527.091 64.3389 528.18 60.529 529.27 58.8962C533.629 51.8208 542.891 46.9223 552.153 44.201C555.422 43.6567 558.691 42.5682 561.415 41.4797C562.505 45.8338 567.408 48.5551 573.401 50.1879C570.133 64.8832 555.967 75.2243 543.981 75.2243ZM497.125 139.992C498.215 137.815 500.939 134.549 504.208 135.094C507.477 135.638 510.201 139.448 510.746 143.802C511.291 147.068 511.836 149.789 511.836 153.055C505.298 160.13 503.118 161.763 493.311 171.015C493.856 156.864 493.311 145.979 497.125 139.992ZM440.463 139.992C440.463 137.271 442.097 134.005 443.732 133.461C444.276 133.461 446.456 132.372 450.814 136.727C458.442 144.346 465.525 152.51 471.518 161.763C464.98 164.484 461.711 170.471 458.442 176.458V177.002C441.552 145.979 440.463 144.346 440.463 139.992ZM389.793 192.786C389.793 191.153 391.973 189.521 394.152 188.432C402.869 185.166 437.194 193.875 446.456 196.052C443.187 201.494 441.007 204.216 437.738 209.658C427.931 204.216 423.573 202.039 409.952 200.95C405.049 200.406 399.6 200.406 395.242 198.773C392.517 198.229 389.793 195.507 389.793 192.786ZM396.876 218.367C395.786 218.367 394.152 217.822 392.517 216.19C389.248 213.468 392.517 209.114 395.242 208.026C399.6 209.114 404.504 209.658 408.862 209.658C420.849 210.747 424.118 212.38 432.835 216.734C430.656 220 428.476 222.721 425.752 225.986C415.4 221.632 409.952 218.367 396.876 218.367Z" fill="#7C7669"/>
<path d="M381.621 101.893C380.531 104.07 381.076 106.248 382.71 107.336C401.235 118.766 400.69 118.766 402.869 118.766C407.228 118.766 408.318 113.323 405.049 111.146L387.069 100.261C384.89 99.1721 382.71 99.7163 381.621 101.893Z" fill="#7C7669"/>
<path d="M417.58 103.526C419.759 102.438 420.304 100.261 419.759 98.0835L401.78 58.8962C400.69 56.7192 398.511 56.1749 396.331 56.7192C394.152 57.8077 393.607 59.9848 394.152 62.1618L412.131 101.349C413.221 103.526 415.945 104.615 417.58 103.526Z" fill="#7C7669"/>
<path d="M439.918 99.172C442.097 99.172 443.732 97.5393 443.732 95.3622L444.821 76.3128C444.821 74.1357 443.187 71.9587 441.007 71.9587C438.828 71.9587 436.649 73.5915 436.649 75.7685L435.559 94.8179C435.559 96.995 437.738 99.172 439.918 99.172Z" fill="#7C7669"/>
<path d="M318.988 109.094C327.441 117.676 340.459 121.924 356.093 124.237C371.727 126.55 389.884 126.929 401.183 118.037C412.483 109.146 417.018 90.8883 414.687 74.8219C412.356 58.7555 403.252 44.8791 391.585 30.2849C379.825 15.787 365.596 0.569858 351.8 0.975238C338.006 1.47532 324.739 17.5017 316.652 32.3103C308.566 47.2136 305.659 60.8045 306.152 74.1527C306.644 87.5009 310.533 100.417 318.988 109.094Z" fill="#CFCEB8" fill-opacity="0.5"/>
<path d="M188.32 576.77C259.61 571.54 331 580.63 402.32 576.6C434.13 574.8 466.04 570.49 496.64 561.4C511.7 556.93 526.44 551.28 540.53 544.33C550.07 539.63 576.58 528.07 563.16 513.96C555.66 506.08 543.53 502.46 532.96 502.03C522.39 501.6 511.1 504.47 501.62 509.69C492.14 514.91 483.82 522.81 479.02 532.54C473.5 543.74 472.8 556.73 476.25 568.67C483.96 595.34 509.08 614.38 535.97 618.36C568.37 623.15 599.75 610.82 627.24 594.73C641.24 586.53 654.78 577.52 669.29 570.23C683.8 562.94 699.84 557.89 716.14 555.18C748.26 549.82 781.35 552.8 813.4 557.16C821.5 558.26 829.59 559.47 837.67 560.7C840.09 561.07 842.48 560.09 843.21 557.56C843.82 555.44 842.47 552.39 840.07 552.02C809.28 547.35 778.2 542.78 746.97 543.46C731.49 543.8 715.94 545.47 700.87 549.12C685.8 552.77 671.63 558.58 658.09 565.95C631.08 580.67 606.42 599.56 576.08 607.13C548.85 613.93 518.89 610.72 498.72 589.61C483.33 573.51 476.51 547.44 491.97 529.01C504.4 514.2 526.32 506.91 544.87 513.28C546.98 514 548.98 514.94 550.92 516.05C552.86 517.16 556.09 518.78 557.22 520.82C559.78 525.43 546.81 530.9 543.97 532.43C530.81 539.54 517.01 545.36 502.81 550.04C474.16 559.48 444.23 564.46 414.22 566.8C347.53 572.01 280.71 564.32 213.96 566.43C205.4 566.7 196.85 567.14 188.32 567.77C182.58 568.19 182.53 577.19 188.32 576.77Z" fill="#B7BEC6" fill-opacity="0.27"/>
<path d="M0 498.676H4.23147C5.42496 506.299 8.57143 512.833 13.6709 518.278C18.7703 523.723 25.2803 526.446 33.2007 526.446C40.0362 526.446 45.3526 524.431 49.1501 520.402C53.0561 516.373 55.009 511.309 55.009 505.21C55.009 500.092 53.4901 495.845 50.4521 492.469C47.4141 489.093 42.6944 485.989 36.293 483.158L28.8065 480.054C19.8011 476.242 12.9656 471.995 8.30018 467.313C3.63472 462.63 1.30199 456.313 1.30199 448.364C1.30199 439.216 4.39421 432.246 10.5787 427.455C16.7631 422.663 24.6835 420.267 34.34 420.267C40.5244 420.267 46.0036 421.411 50.7776 423.697C52.7306 424.46 54.0868 424.841 54.8463 424.841C55.7143 424.841 56.3653 424.514 56.7993 423.861C57.2333 423.098 57.613 422.064 57.9385 420.757H61.519L63.1465 449.67H58.915C57.83 442.483 55.2803 436.711 51.2658 432.355C47.2514 427.999 41.7179 425.821 34.6655 425.821C28.915 425.821 24.3038 427.4 20.8318 430.558C17.4684 433.607 15.7866 438.181 15.7866 444.28C15.7866 449.507 17.3056 453.645 20.3436 456.695C23.3816 459.744 28.047 462.63 34.34 465.352L42.1519 468.619C47.9024 471.124 52.6763 473.629 56.4738 476.134C60.3798 478.638 63.5805 481.96 66.076 486.098C68.5714 490.127 69.8192 495.082 69.8192 500.963C69.8192 510.546 66.51 518.115 59.8915 523.669C53.3816 529.223 44.5389 532 33.3635 532C29.2405 532 25.8228 531.673 23.1103 531.02C20.3978 530.475 17.5226 529.659 14.4846 528.57C12.5316 527.698 11.0127 527.263 9.92767 527.263C8.73418 527.263 7.81193 527.644 7.16094 528.406C6.61844 529.169 6.29295 530.149 6.18445 531.347H2.11573L0 498.676Z" fill="#6F6C4E"/>
<path d="M155.341 527.426C153.28 528.733 151.164 529.768 148.994 530.53C146.824 531.292 144.003 531.673 140.531 531.673C137.276 531.673 134.78 531.02 133.044 529.713C131.417 528.406 130.441 525.575 130.115 521.219C126.101 524.704 122.195 527.372 118.397 529.223C114.6 530.965 110.368 531.837 105.703 531.837C99.7353 531.837 94.8528 530.475 91.0553 527.753C87.3664 524.921 85.5219 520.838 85.5219 515.501C85.5219 507.878 89.3736 501.235 97.077 495.572C104.78 489.91 115.793 485.935 130.115 483.648V474.173C130.115 468.619 128.976 464.481 126.697 461.759C124.527 459.036 120.73 457.675 115.305 457.675C111.507 457.675 108.09 458.383 105.052 459.798C102.014 461.214 100.495 462.63 100.495 464.045C100.495 464.808 100.983 465.625 101.959 466.496C103.044 467.258 103.858 468.075 104.401 468.946C105.052 469.708 105.377 470.906 105.377 472.54C105.377 474.827 104.726 476.678 103.424 478.094C102.122 479.401 100.278 480.054 97.8908 480.054C95.3953 480.054 93.3881 479.292 91.8691 477.767C90.4586 476.242 89.7533 474.119 89.7533 471.396C89.7533 468.02 90.8383 464.862 93.0083 461.922C95.2868 458.982 98.6503 456.586 103.099 454.734C107.656 452.883 113.189 451.957 119.699 451.957C127.945 451.957 134.021 453.645 137.927 457.021C141.833 460.397 143.786 466.278 143.786 474.663V513.378C143.786 517.625 144.22 520.565 145.088 522.199C146.064 523.723 147.583 524.486 149.645 524.486C150.947 524.486 152.466 524.105 154.202 523.342L155.341 527.426ZM100.169 511.581C100.169 515.393 101.254 518.278 103.424 520.239C105.594 522.09 108.741 523.016 112.864 523.016C115.902 523.016 118.777 522.362 121.489 521.055C124.31 519.749 127.186 518.006 130.115 515.828V488.875C120.025 491.053 112.484 493.993 107.493 497.696C102.61 501.29 100.169 505.918 100.169 511.581Z" fill="#6F6C4E"/>
<path d="M279.882 516.482C279.882 519.204 280.099 521.164 280.533 522.362C280.967 523.56 281.943 524.377 283.462 524.813C284.981 525.139 287.531 525.303 291.112 525.303V530.04H255.47V525.303C258.942 525.303 261.383 525.139 262.793 524.813C264.204 524.377 265.126 523.615 265.56 522.526C265.994 521.437 266.211 519.531 266.211 516.808V477.114C266.211 471.777 265.126 467.53 262.956 464.372C260.786 461.214 257.26 459.635 252.377 459.635C248.58 459.635 245.216 460.724 242.287 462.902C239.357 464.971 236.591 467.857 233.987 471.56V516.482C233.987 519.204 234.204 521.164 234.638 522.362C235.072 523.451 235.994 524.214 237.404 524.649C238.923 525.085 241.365 525.303 244.728 525.303V530.04H209.574V525.303C213.046 525.303 215.488 525.139 216.898 524.813C218.309 524.377 219.231 523.615 219.665 522.526C220.099 521.437 220.316 519.531 220.316 516.808V477.114C220.316 471.777 219.231 467.53 217.061 464.372C214.891 461.214 211.365 459.635 206.482 459.635C199.647 459.635 193.517 463.446 188.092 471.07V516.808C188.092 519.531 188.309 521.491 188.743 522.689C189.177 523.778 190.099 524.486 191.509 524.813C192.92 525.139 195.307 525.303 198.67 525.303V530.04H163.028V525.303C166.609 525.303 169.159 525.085 170.678 524.649C172.197 524.214 173.119 523.451 173.444 522.362C173.878 521.273 174.095 519.313 174.095 516.482V467.803C174.095 464.971 173.77 463.12 173.119 462.249C172.468 461.268 171.22 460.778 169.376 460.778H163.842V455.878L183.046 452.611H187.603V464.372H187.766C194.927 455.987 203.499 451.794 213.48 451.794C218.905 451.794 223.3 452.992 226.663 455.388C230.027 457.784 232.251 460.996 233.336 465.026C240.063 456.205 248.743 451.794 259.376 451.794C266.32 451.794 271.473 453.754 274.837 457.675C278.2 461.486 279.882 467.367 279.882 475.317V516.482Z" fill="#6F6C4E"/>
<path d="M319.828 438.236C317.224 438.236 315.054 437.419 313.318 435.786C311.69 434.043 310.877 431.92 310.877 429.415C310.877 426.801 311.69 424.623 313.318 422.881C315.054 421.138 317.224 420.267 319.828 420.267C322.54 420.267 324.71 421.138 326.338 422.881C327.965 424.623 328.779 426.801 328.779 429.415C328.779 431.92 327.911 434.043 326.175 435.786C324.548 437.419 322.432 438.236 319.828 438.236ZM302.251 525.303C305.831 525.303 308.381 525.085 309.9 524.649C311.419 524.214 312.341 523.451 312.667 522.362C313.101 521.273 313.318 519.313 313.318 516.482V467.803C313.318 464.971 312.992 463.12 312.341 462.249C311.799 461.268 310.551 460.778 308.598 460.778H303.065V455.878L322.757 452.611H327.314V516.482C327.314 519.313 327.531 521.328 327.965 522.526C328.399 523.615 329.321 524.377 330.732 524.813C332.251 525.139 334.801 525.303 338.381 525.303V530.04H302.251V525.303Z" fill="#6F6C4E"/>
<path d="M361.963 454.081C360.987 454.081 360.281 453.809 359.847 453.264C359.522 452.72 359.251 451.903 359.034 450.814L356.43 433.989C355.887 431.048 355.616 428.489 355.616 426.311C355.616 424.46 356.104 422.935 357.081 421.737C358.057 420.43 359.685 419.777 361.963 419.777C366.195 419.777 368.31 421.955 368.31 426.311C368.31 427.945 368.093 430.504 367.659 433.989L364.893 450.814C364.676 451.903 364.35 452.72 363.916 453.264C363.591 453.809 362.94 454.081 361.963 454.081Z" fill="#6F6C4E"/>
<path d="M416.144 531.837C413.107 531.837 410.503 531.564 408.333 531.02C406.271 530.475 404.155 529.768 401.985 528.896C399.49 527.916 397.591 527.426 396.289 527.426C395.204 527.426 394.336 527.698 393.685 528.243C393.143 528.679 392.6 529.441 392.058 530.53H388.965L387.338 503.577H390.593C392.654 511.2 395.801 516.972 400.032 520.892C404.264 524.704 409.309 526.609 415.168 526.609C419.942 526.609 423.739 525.466 426.56 523.179C429.49 520.783 430.955 517.462 430.955 513.214C430.955 510.165 430.141 507.661 428.513 505.7C426.886 503.631 424.933 501.998 422.654 500.8C420.376 499.602 417.012 498.132 412.564 496.389L408.495 494.919C401.877 492.197 396.994 489.365 393.848 486.425C390.81 483.375 389.291 479.237 389.291 474.01C389.291 467.149 391.678 461.759 396.452 457.838C401.334 453.809 407.736 451.794 415.656 451.794C418.26 451.794 420.376 451.957 422.003 452.284C423.631 452.611 425.475 453.101 427.537 453.754C429.707 454.408 431.117 454.734 431.768 454.734C432.853 454.734 433.613 454.517 434.047 454.081C434.481 453.536 434.752 453.046 434.861 452.611C435.078 452.175 435.186 451.903 435.186 451.794H438.116L439.255 475.807H436C433.07 463.174 426.56 456.858 416.47 456.858C412.022 456.858 408.333 457.947 405.403 460.125C402.582 462.303 401.172 465.134 401.172 468.619C401.172 472.104 402.528 475.045 405.24 477.44C408.061 479.727 411.425 481.579 415.331 482.994L419.725 484.464C427.862 487.296 433.83 490.454 437.627 493.939C441.533 497.424 443.486 502.161 443.486 508.151C443.486 515.229 440.937 520.947 435.837 525.303C430.738 529.659 424.173 531.837 416.144 531.837Z" fill="#6F6C4E"/>
<path d="M498.115 525.303C502.238 525.303 505.113 525.085 506.741 524.649C508.477 524.105 509.562 523.233 509.996 522.036C510.43 520.729 510.647 518.551 510.647 515.501V436.766C510.647 433.716 510.376 431.593 509.833 430.395C509.399 429.088 508.314 428.217 506.578 427.781C504.951 427.237 502.13 426.964 498.115 426.964V422.227H574.119V447.874H569.725C568.748 442.211 567.555 438.018 566.144 435.295C564.734 432.573 562.455 430.667 559.309 429.578C556.271 428.38 551.714 427.781 545.638 427.781H531.641C529.146 427.781 527.518 428.108 526.759 428.761C526.108 429.415 525.782 431.048 525.782 433.662V473.193H544.987C549.11 473.193 552.148 472.758 554.101 471.886C556.054 471.015 557.41 469.708 558.169 467.966C558.929 466.223 559.634 463.392 560.285 459.472H564.028V493.286H560.285C559.634 489.365 558.929 486.534 558.169 484.791C557.41 483.049 556.054 481.742 554.101 480.871C552.148 480 549.11 479.564 544.987 479.564H525.782V515.501C525.782 518.551 526.054 520.729 526.596 522.036C527.139 523.233 528.386 524.105 530.339 524.649C532.401 525.085 535.873 525.303 540.755 525.303V530.04H498.115V525.303Z" fill="#6F6C4E"/>
<path d="M584.022 525.303C587.603 525.303 590.152 525.085 591.671 524.649C593.19 524.214 594.167 523.451 594.601 522.362C595.035 521.164 595.252 519.204 595.252 516.482V432.192C595.252 429.36 594.926 427.509 594.275 426.638C593.624 425.658 592.322 425.168 590.369 425.168H584.836V420.267L604.529 417H609.086V516.482C609.086 519.204 609.303 521.164 609.737 522.362C610.171 523.451 611.147 524.214 612.666 524.649C614.185 525.085 616.68 525.303 620.152 525.303V530.04H584.022V525.303Z" fill="#6F6C4E"/>
<path d="M666.452 531.837C642.908 531.837 631.135 518.496 631.135 491.815C631.135 478.638 634.065 468.674 639.924 461.922C645.783 455.061 654.68 451.631 666.615 451.631C690.159 451.631 701.931 464.971 701.931 491.652C701.931 518.442 690.105 531.837 666.452 531.837ZM666.615 526.609C680.069 526.609 686.795 515.229 686.795 492.469C686.795 468.728 680.014 456.858 666.452 456.858C659.725 456.858 654.68 459.853 651.316 465.842C647.953 471.723 646.271 480.381 646.271 491.815C646.271 515.011 653.052 526.609 666.615 526.609Z" fill="#6F6C4E"/>
<path d="M719.549 464.862C718.789 462.14 717.704 460.397 716.294 459.635C714.992 458.764 712.713 458.328 709.458 458.328V453.591H741.357V458.328H736.312C734.142 458.328 733.057 459.308 733.057 461.268C733.057 461.922 733.22 462.739 733.545 463.719L747.541 514.685H747.867L764.955 454.898H773.581L792.135 514.685H792.46L805.643 464.045C805.86 463.392 805.968 462.521 805.968 461.432C805.968 460.343 805.643 459.58 804.992 459.145C804.341 458.6 803.31 458.328 801.899 458.328H795.227V453.591H823.382V458.328C819.476 458.328 816.764 458.873 815.245 459.962C813.834 460.942 812.695 463.12 811.827 466.496L792.948 530.04H783.997L765.932 474.5H765.444L748.355 530.04H739.567L719.549 464.862Z" fill="#6F6C4E"/>
<path d="M893.041 492.469H841.287C841.504 502.597 843.294 510.601 846.658 516.482C850.13 522.362 856.206 525.303 864.886 525.303C871.179 525.303 876.17 523.669 879.859 520.402C883.548 517.135 886.26 512.942 887.996 507.824L892.553 509.784C890.274 516.427 886.748 521.763 881.974 525.793C877.2 529.822 870.094 531.837 860.654 531.837C849.045 531.837 840.365 528.461 834.614 521.709C828.973 514.957 826.152 505.265 826.152 492.632C826.152 479.673 829.081 469.654 834.94 462.575C840.799 455.388 849.425 451.794 860.817 451.794C882.3 451.794 893.041 464.862 893.041 490.999V492.469ZM877.906 487.241C877.906 476.896 876.658 469.273 874.162 464.372C871.667 459.363 867.273 456.858 860.98 456.858C854.578 456.858 849.804 459.417 846.658 464.536C843.511 469.545 841.721 477.114 841.287 487.241H877.906Z" fill="#6F6C4E"/>
<path d="M951.12 451.631C955.026 451.631 958.009 452.774 960.071 455.061C962.241 457.348 963.326 460.506 963.326 464.536C963.326 467.803 962.566 470.362 961.047 472.213C959.528 474.064 957.196 474.99 954.049 474.99C951.337 474.99 949.221 474.282 947.702 472.866C946.291 471.451 945.586 469.599 945.586 467.313C945.586 466.006 945.803 464.917 946.237 464.045C946.671 463.174 947.322 462.249 948.19 461.268C949.058 460.288 949.492 459.526 949.492 458.982C949.492 458.001 948.787 457.511 947.376 457.511C945.315 457.511 943.091 458.546 940.704 460.615C938.425 462.684 936.418 465.516 934.682 469.109C932.946 472.594 931.861 476.406 931.427 480.544V516.482C931.427 519.313 931.644 521.328 932.078 522.526C932.621 523.615 933.705 524.377 935.333 524.813C936.96 525.139 939.727 525.303 943.633 525.303V530.04H906.364V525.303C909.944 525.303 912.494 525.085 914.013 524.649C915.532 524.214 916.454 523.451 916.78 522.362C917.214 521.273 917.431 519.313 917.431 516.482V467.803C917.431 464.971 917.105 463.12 916.454 462.249C915.803 461.268 914.555 460.778 912.711 460.778H907.177V455.878L926.382 452.611H930.939V467.966H931.102C933.489 463.392 936.201 459.526 939.239 456.368C942.277 453.21 946.237 451.631 951.12 451.631Z" fill="#6F6C4E"/>
<path d="M1001.66 531.837C998.62 531.837 996.016 531.564 993.846 531.02C991.785 530.475 989.669 529.768 987.499 528.896C985.004 527.916 983.105 527.426 981.803 527.426C980.718 527.426 979.85 527.698 979.199 528.243C978.656 528.679 978.114 529.441 977.571 530.53H974.479L972.852 503.577H976.107C978.168 511.2 981.315 516.972 985.546 520.892C989.778 524.704 994.823 526.609 1000.68 526.609C1005.46 526.609 1009.25 525.466 1012.07 523.179C1015 520.783 1016.47 517.462 1016.47 513.214C1016.47 510.165 1015.65 507.661 1014.03 505.7C1012.4 503.631 1010.45 501.998 1008.17 500.8C1005.89 499.602 1002.53 498.132 998.078 496.389L994.009 494.919C987.391 492.197 982.508 489.365 979.362 486.425C976.324 483.375 974.805 479.237 974.805 474.01C974.805 467.149 977.192 461.759 981.966 457.838C986.848 453.809 993.249 451.794 1001.17 451.794C1003.77 451.794 1005.89 451.957 1007.52 452.284C1009.14 452.611 1010.99 453.101 1013.05 453.754C1015.22 454.408 1016.63 454.734 1017.28 454.734C1018.37 454.734 1019.13 454.517 1019.56 454.081C1019.99 453.536 1020.27 453.046 1020.37 452.611C1020.59 452.175 1020.7 451.903 1020.7 451.794H1023.63L1024.77 475.807H1021.51C1018.58 463.174 1012.07 456.858 1001.98 456.858C997.535 456.858 993.846 457.947 990.917 460.125C988.096 462.303 986.685 465.134 986.685 468.619C986.685 472.104 988.042 475.045 990.754 477.44C993.575 479.727 996.938 481.579 1000.84 482.994L1005.24 484.464C1013.38 487.296 1019.34 490.454 1023.14 493.939C1027.05 497.424 1029 502.161 1029 508.151C1029 515.229 1026.45 520.947 1021.35 525.303C1016.25 529.659 1009.69 531.837 1001.66 531.837Z" fill="#6F6C4E"/>
</svg>
